<?xml version="1.0" standalone="no"?>
<!DOCTYPE svg PUBLIC "-//W3C//DTD SVG 20010904//EN"
 "http://www.w3.org/TR/2001/REC-SVG-20010904/DTD/svg10.dtd">
<svg version="1.0" xmlns="http://www.w3.org/2000/svg"
 width="736.000000pt" height="1309.000000pt" viewBox="0 0 736.000000 1309.000000"
 preserveAspectRatio="xMidYMid meet">

<g transform="translate(0.000000,1309.000000) scale(0.100000,-0.100000)"
fill="#000000" stroke="none">
<path d="M378 9748 c-2 -1641 -1 -4296 2 -5900 l5 -2917 703 0 702 0 0 35 0
34 -675 0 -675 0 0 5835 0 5835 3250 0 3250 0 0 -5835 0 -5835 -631 0 -630 0
3 -32 3 -33 658 -2 657 -2 0 5900 0 5899 -3310 0 -3310 0 -2 -2982z"/>
<path d="M5393 11503 c-8 -37 -33 -58 -33 -29 0 9 -4 16 -10 16 -14 0 -12 -17
6 -45 17 -27 16 -96 -3 -102 -7 -3 -15 7 -19 22 -3 14 -14 30 -24 35 -10 5
-21 23 -25 40 -4 16 -11 30 -16 30 -11 0 -1 -95 12 -122 14 -26 11 -38 -9 -38
-11 0 -24 -11 -30 -25 -10 -21 -9 -32 4 -56 20 -40 30 -124 15 -133 -7 -5 -11
1 -11 13 0 22 -16 29 -22 10 -2 -6 -4 8 -5 31 -1 23 -5 45 -8 48 -8 8 -25 -20
-19 -30 3 -4 0 -8 -5 -8 -6 0 -11 -9 -11 -20 0 -11 -5 -20 -11 -20 -6 0 -9 -7
-6 -15 12 -29 -12 -24 -37 7 -28 36 -33 32 -12 -10 29 -59 26 -137 -4 -81 -7
11 -14 18 -17 16 -2 -3 3 -19 12 -37 24 -47 8 -50 -32 -7 -25 28 -34 45 -30
63 3 15 -3 30 -16 41 -20 17 -20 17 -13 -2 18 -46 18 -55 1 -55 -16 0 -17 -2
-3 -17 33 -38 49 -83 42 -118 -7 -37 -13 -42 -32 -23 -21 21 -13 -4 13 -38 27
-35 34 -91 14 -111 -7 -7 -9 -25 -4 -50 8 -42 8 -43 -1 -42 -4 0 -11 -5 -15
-13 -7 -10 -15 -6 -35 17 -18 21 -23 24 -18 10 4 -11 9 -33 11 -50 4 -26 2
-28 -9 -15 -17 19 -46 27 -31 8 12 -15 23 -79 12 -72 -4 2 -12 -4 -18 -13 -8
-16 -11 -15 -21 12 -25 69 -33 84 -40 80 -5 -3 -6 -26 -3 -51 4 -45 4 -46 -19
-41 -19 5 -23 2 -25 -19 0 -14 8 -35 18 -45 10 -10 19 -26 19 -35 0 -8 5 -12
10 -9 6 3 10 -4 10 -16 0 -17 -5 -20 -25 -17 -13 3 -22 1 -19 -3 10 -17 -16
-9 -36 11 -21 21 -27 35 -10 25 15 -9 12 7 -5 29 -15 20 -15 20 -16 0 -1 -10
-1 -23 0 -28 17 -88 20 -110 17 -113 -2 -3 -16 3 -30 12 -31 20 -33 11 -8 -30
10 -16 22 -43 26 -60 7 -29 7 -29 -13 -11 l-21 19 6 -46 c4 -26 4 -47 1 -47
-3 0 -17 25 -31 55 -14 30 -27 55 -31 55 -7 0 4 -79 17 -113 17 -45 2 -42 -26
5 -14 24 -26 35 -26 26 0 -9 -8 -21 -17 -26 -14 -8 -15 -14 -4 -40 7 -17 11
-40 9 -53 -3 -20 -6 -18 -23 18 -11 23 -23 39 -28 36 -4 -3 -2 -15 5 -26 20
-33 17 -91 -5 -95 -13 -3 -23 9 -39 47 -11 28 -25 51 -29 51 -11 0 -12 -24 -2
-34 4 -4 8 -22 10 -41 1 -27 -3 -35 -19 -41 -12 -3 -24 -1 -28 6 -5 8 -10 2
-14 -16 -5 -18 -3 -30 3 -32 14 -5 36 -55 45 -105 5 -29 4 -39 -9 -43 -9 -4
-14 -13 -11 -20 8 -20 -4 -17 -20 4 -18 23 -17 3 1 -41 19 -45 19 -86 1 -93
-8 -3 -12 -13 -9 -25 3 -10 0 -19 -6 -19 -6 0 -11 8 -11 18 0 9 -11 38 -25 64
-18 34 -25 63 -25 105 l-1 58 -15 -40 c-20 -53 -21 -49 11 -139 16 -45 25 -91
23 -108 -3 -17 -2 -49 3 -71 7 -43 3 -67 -13 -67 -5 0 -6 9 -3 20 5 17 2 20
-24 20 -17 0 -31 4 -31 10 0 5 -6 7 -13 4 -7 -2 -22 4 -32 16 -10 11 -24 20
-32 20 -20 0 -4 -25 55 -87 40 -41 53 -64 67 -117 10 -37 15 -69 11 -73 -10
-11 -34 19 -44 57 -10 32 -11 33 -17 13 -9 -28 -25 -30 -25 -3 0 11 -7 20 -15
20 -8 0 -15 -2 -15 -4 0 -2 7 -20 15 -39 18 -45 19 -48 1 -41 -7 3 -18 16 -25
30 -6 14 -16 22 -21 19 -5 -3 -24 7 -42 24 -37 34 -51 34 -19 -1 12 -12 24
-33 27 -45 3 -12 14 -25 23 -28 10 -3 22 -15 28 -28 36 -78 43 -101 37 -125
-5 -22 -3 -24 6 -12 10 12 11 12 5 -5 -4 -11 -10 -30 -12 -43 -7 -29 -23 -39
-23 -13 0 11 5 23 10 26 6 4 7 11 4 17 -4 6 -15 -7 -24 -27 -17 -37 -18 -37
-29 -16 -7 12 -12 43 -13 70 0 26 -4 54 -9 62 -6 9 -9 -2 -9 -33 0 -58 -15
-72 -17 -15 -2 41 -22 102 -31 93 -2 -3 -14 -1 -24 5 -19 10 -20 8 -13 -33 3
-23 9 -51 11 -60 10 -33 -30 -19 -61 22 -16 21 -36 39 -42 40 -16 0 -16 -1 3
-50 14 -35 19 -39 40 -34 21 5 27 1 41 -32 16 -36 25 -152 15 -182 -8 -22 -22
8 -22 46 0 33 -31 89 -57 105 -7 4 -13 14 -13 21 0 8 -9 24 -20 37 l-20 24 17
-50 c9 -27 22 -59 29 -70 16 -25 44 -122 44 -149 -1 -21 -1 -21 -19 2 -26 30
-35 28 -17 -5 35 -64 44 -101 40 -169 -3 -37 -10 -75 -15 -83 -7 -12 -9 -6 -4
21 3 23 1 45 -7 57 -10 16 -10 23 0 33 18 18 14 46 -9 58 -25 14 -36 6 -20
-14 8 -9 9 -25 4 -45 -10 -41 -27 -44 -31 -6 -2 16 -10 38 -18 49 -8 11 -14
33 -14 48 0 28 -13 43 -29 34 -5 -4 -4 -30 4 -63 7 -32 11 -61 9 -65 -9 -15
-42 11 -49 39 -11 47 -22 7 -17 -69 3 -65 2 -71 -12 -59 -17 14 -23 2 -7 -15
15 -14 26 -144 12 -144 -6 0 -11 8 -11 19 0 10 -7 24 -16 32 -13 10 -17 10
-24 -2 -7 -11 -17 -7 -47 21 -21 19 -41 40 -46 45 -5 6 -5 -1 -2 -15 7 -24 5
-23 -31 10 -21 19 -42 40 -46 45 -4 6 -8 6 -8 1 0 -10 79 -128 91 -136 4 -3
13 -18 19 -34 9 -24 8 -27 -5 -22 -8 3 -15 3 -15 0 0 -15 36 -65 51 -69 9 -3
26 -16 39 -30 22 -23 22 -27 10 -77 -7 -29 -13 -77 -13 -105 0 -58 -4 -63 -30
-33 -27 31 -34 24 -41 -41 -3 -34 -11 -68 -17 -75 -7 -9 -7 -19 0 -33 17 -30
13 -66 -9 -92 l-19 -24 -1 28 c0 15 -4 27 -10 27 -5 0 -10 -9 -10 -21 0 -45
-22 -10 -26 41 -2 30 -6 69 -8 85 -1 17 -4 38 -4 48 -1 10 -6 16 -10 13 -10
-6 -8 -121 3 -188 5 -30 4 -48 -2 -48 -12 0 -33 44 -33 70 0 11 -4 20 -10 20
-12 0 -12 -26 0 -114 6 -38 8 -71 6 -74 -3 -2 -21 31 -41 73 -20 42 -39 74
-41 72 -3 -3 8 -44 25 -91 17 -47 34 -116 37 -154 8 -76 12 -77 -75 9 -28 28
-51 55 -51 61 0 6 -2 9 -5 6 -8 -8 12 -55 32 -76 22 -23 47 -54 57 -70 5 -8 1
-10 -11 -6 -10 4 -52 42 -94 85 -42 44 -79 79 -83 79 -14 0 49 -98 104 -160
50 -57 60 -73 51 -87 -9 -17 -10 -17 -16 -1 -4 10 -11 15 -16 12 -6 -3 -22 2
-37 12 -26 17 -27 17 -12 -2 8 -10 23 -28 33 -39 36 -39 81 -100 65 -87 -21
16 -33 0 -19 -26 5 -10 13 -42 17 -72 8 -59 -6 -66 -36 -18 -8 13 -28 44 -44
68 -16 24 -35 60 -44 79 -8 21 -17 30 -20 23 -4 -13 4 -37 44 -131 8 -18 12
-36 9 -40 -7 -6 -50 39 -58 61 -2 7 -7 10 -11 7 -4 -4 7 -30 24 -58 34 -59 35
-61 16 -61 -16 0 -106 94 -106 111 0 8 -4 8 -15 -1 -13 -10 -19 -10 -35 5 -11
10 -20 13 -20 7 0 -6 38 -43 84 -82 78 -65 104 -96 92 -108 -3 -2 -21 5 -41
17 -31 18 -43 20 -88 12 -29 -5 -40 -9 -24 -10 15 0 27 -5 27 -11 0 -5 8 -10
19 -10 21 0 50 -38 44 -57 -2 -7 -12 -9 -21 -6 -9 4 -5 -4 10 -18 28 -25 93
-138 84 -146 -3 -3 -17 7 -31 21 -14 14 -32 26 -39 26 -8 0 -37 16 -65 35 -51
33 -51 34 -29 6 13 -15 44 -43 70 -62 26 -19 48 -38 48 -43 0 -5 -22 -6 -48
-3 -71 8 -83 -7 -15 -20 100 -19 202 -75 160 -88 -6 -2 -46 -15 -87 -30 -66
-23 -97 -35 -175 -65 -154 -60 -333 -147 -426 -208 -118 -77 -245 -190 -426
-376 -131 -136 -175 -175 -201 -181 -32 -7 -34 -6 -27 16 l7 24 -24 -22 c-31
-29 -52 -30 -43 -3 3 11 2 20 -3 20 -5 0 -12 9 -15 20 -8 31 -22 24 -42 -20
-10 -22 -21 -40 -25 -40 -12 0 -27 23 -35 55 -8 32 -11 29 -30 -30 -5 -17 -11
-12 -38 30 l-32 50 -3 -30 c-5 -53 -10 -60 -30 -41 -28 24 -52 20 -52 -9 0
-30 -15 -33 -30 -5 -6 10 -17 17 -24 14 -8 -3 -17 0 -21 5 -13 21 -24 0 -13
-24 8 -19 8 -28 -2 -40 -16 -19 -39 -19 -46 -1 -3 8 -18 14 -32 14 -15 -1 -37
2 -50 6 -24 8 -27 4 -12 -23 5 -10 6 -35 3 -55 -6 -37 -7 -38 -40 -31 -25 4
-34 3 -32 -7 6 -45 0 -51 -40 -44 -49 8 -59 -6 -25 -33 l26 -20 -28 -13 c-16
-7 -35 -21 -42 -30 -9 -12 -27 -18 -55 -19 -59 -1 -18 -17 46 -18 26 -1 47 -5
47 -11 0 -5 -4 -10 -10 -10 -5 0 -10 -7 -10 -15 0 -18 -5 -19 -32 -4 -18 10
-20 9 -16 -8 8 -30 -10 -53 -40 -53 l-27 0 25 -20 c14 -10 21 -22 18 -26 -4
-4 0 -13 10 -20 16 -13 15 -14 -5 -20 -24 -7 -31 -28 -13 -39 17 -11 11 -22
-20 -35 -93 -38 -145 -104 -221 -275 l-44 -100 1 -135 c0 -119 4 -150 32 -260
55 -212 151 -474 287 -785 83 -191 128 -261 296 -470 150 -185 558 -543 711
-625 43 -22 49 -23 75 -10 47 25 208 190 194 199 -10 6 -9 10 3 14 9 4 16 1
16 -5 0 -6 2 -9 5 -6 3 3 1 16 -4 29 -5 13 -10 18 -10 10 -1 -9 -10 -4 -26 13
-17 18 -24 34 -20 47 5 14 0 22 -20 29 -35 13 -35 13 -35 -10 0 -11 -7 -20
-15 -20 -8 0 -15 5 -15 10 0 6 -10 21 -22 34 -30 29 -34 55 -12 70 21 16 9 40
-17 33 -13 -4 -26 4 -40 24 -20 28 -20 29 -1 29 28 0 34 11 14 27 -16 12 -16
14 2 28 17 13 18 15 3 15 -9 0 -17 -4 -17 -10 0 -5 -7 -7 -15 -4 -8 4 -22 1
-30 -6 -18 -15 -19 -6 -3 23 12 23 21 73 11 63 -9 -9 -43 13 -43 28 0 8 7 17
16 20 14 5 14 9 3 22 -23 28 -38 81 -26 93 8 8 4 18 -11 34 -12 13 -22 27 -22
32 0 5 -10 20 -22 33 -15 16 -19 26 -11 29 7 2 9 12 6 20 -5 12 -2 15 10 10 8
-3 20 0 26 7 8 10 4 12 -20 11 -17 -1 -35 -8 -41 -16 -8 -11 -9 -11 -5 2 3 9
0 22 -6 29 -9 10 -8 12 5 7 25 -9 42 17 28 43 -6 11 -15 18 -21 15 -5 -4 -9 1
-9 9 0 9 -4 16 -10 16 -5 0 -10 7 -10 16 0 17 -18 38 -40 47 -11 4 -12 6 -2 6
9 1 1 19 -22 51 -20 27 -56 89 -82 137 -25 48 -55 100 -65 115 -10 14 -19 29
-19 33 0 4 -25 47 -55 96 -30 49 -55 91 -55 95 0 3 -70 111 -156 239 -136 205
-212 313 -294 418 -42 53 -154 85 -191 55 -33 -28 -79 -135 -79 -184 0 -13 -5
-26 -11 -30 -8 -5 -10 13 -7 62 4 72 37 155 80 200 44 49 119 31 199 -48 42
-40 239 -297 300 -390 13 -20 69 -103 124 -185 56 -81 132 -200 170 -263 37
-63 79 -132 92 -152 12 -21 23 -42 23 -48 0 -6 5 -8 12 -4 7 4 8 3 4 -4 -7
-11 8 -44 31 -70 11 -11 13 -10 13 5 1 14 4 13 15 -7 19 -34 19 -45 -2 -29
-15 13 -15 12 -2 -8 21 -35 35 -28 36 19 1 24 6 44 12 46 5 2 6 12 4 23 -4 15
-11 19 -27 15 -20 -5 -20 -4 -2 9 10 8 22 12 27 10 13 -9 21 15 14 43 -7 25
-8 25 -15 7 -8 -19 -9 -18 -9 4 -1 21 2 23 29 18 31 -7 52 9 26 19 -9 3 -13
10 -10 15 3 6 0 17 -7 25 -10 12 -9 20 2 40 9 17 10 28 3 32 -9 6 -44 69 -44
79 0 3 7 -3 16 -11 22 -23 34 -20 34 9 0 14 7 28 15 31 20 8 19 30 -2 39 -17
6 -17 7 0 16 9 6 15 14 12 20 -3 5 1 6 10 3 11 -5 16 -2 15 7 -4 27 0 39 15
39 21 0 35 32 24 53 -6 9 -7 23 -3 29 5 7 7 25 6 40 -1 14 2 29 8 33 6 4 10
-10 10 -34 0 -23 5 -41 10 -41 6 0 10 10 10 23 0 37 12 67 26 67 9 0 11 10 7
37 -6 35 -5 37 10 24 10 -7 17 -21 17 -29 0 -14 2 -14 17 1 17 17 17 19 0 28
-18 10 -18 11 0 25 10 7 13 14 6 14 -7 0 -10 7 -7 15 4 8 1 22 -6 30 -10 12
-10 15 3 15 9 0 19 -5 22 -10 8 -13 25 -3 25 16 0 8 -9 14 -20 14 -11 0 -20 5
-20 10 0 6 8 10 18 10 19 0 69 49 64 63 -1 5 7 21 18 37 11 15 20 42 20 59 0
25 6 33 36 47 25 12 32 19 22 25 -22 14 -4 16 22 2 14 -7 18 -13 10 -13 -11 0
-11 -3 -2 -12 7 -7 12 -21 12 -32 0 -29 12 -11 16 24 7 58 52 98 88 78 22 -12
38 -1 31 22 -4 13 1 19 20 24 14 4 25 12 25 20 0 7 12 19 26 26 22 12 27 12
34 0 8 -12 13 -13 30 -2 11 6 31 12 44 12 13 0 26 7 30 15 3 8 12 15 19 15 7
0 20 11 27 25 13 25 40 35 40 15 0 -5 7 -10 15 -10 21 0 19 16 -2 25 -15 5
-13 9 12 22 17 9 42 29 57 45 14 15 31 28 38 28 7 0 10 7 5 18 -5 13 -4 14 6
5 9 -10 10 -15 0 -27 -9 -10 -9 -16 -1 -21 7 -4 9 -16 7 -27 -4 -15 -3 -17 8
-8 10 8 14 7 17 -7 3 -10 5 2 5 27 0 36 -1 40 -7 20 -7 -21 -8 -22 -10 -5 -1
11 -3 25 -5 30 -1 6 -3 16 -3 22 -1 7 -23 23 -48 34 -65 31 -117 114 -84 134
6 4 8 15 5 26 -11 33 5 58 48 80 38 20 42 20 68 5 15 -9 37 -16 49 -16 23 0
110 -67 110 -85 0 -5 9 -16 20 -23 11 -7 20 -20 20 -31 0 -10 10 -26 21 -37
21 -19 22 -19 15 1 -5 18 -1 20 36 23 40 3 41 2 25 -16 -16 -17 -16 -20 -2
-32 18 -15 20 -36 3 -43 -10 -4 -10 -6 0 -6 17 -1 32 41 27 79 -3 24 1 37 18
51 30 25 49 24 47 -3 -4 -44 0 -55 11 -35 5 9 18 17 29 17 10 0 30 13 43 30
17 19 31 28 41 24 9 -3 16 -1 16 5 0 6 -5 11 -12 11 -6 0 -9 3 -5 6 3 4 13 4
21 1 12 -5 12 -13 4 -47 -9 -33 -13 -38 -24 -29 -11 9 -14 7 -14 -9 0 -16 4
-20 18 -15 9 3 22 12 29 21 8 9 19 12 30 7 40 -16 79 -13 92 7 9 15 10 23 2
31 -18 18 -12 27 19 27 20 0 30 -5 30 -15 0 -22 27 -30 46 -14 13 10 17 10 26
-2 8 -11 9 -11 4 4 -3 9 -3 24 0 32 5 13 8 13 21 0 18 -19 38 -19 55 -1 12 12
19 10 48 -14 31 -25 32 -27 12 -32 -13 -4 -23 0 -26 8 -8 21 -48 18 -44 -3 2
-11 11 -17 21 -15 10 2 17 -4 17 -13 0 -8 4 -15 9 -15 5 0 7 -9 4 -20 -4 -15
0 -20 16 -20 23 0 30 35 9 43 -8 3 -6 6 5 6 10 1 17 9 17 21 0 11 7 20 15 20
10 0 15 -7 13 -17 -2 -13 4 -18 22 -19 14 0 36 -1 49 -2 l24 -2 -21 -23 c-22
-23 -30 -57 -13 -57 5 0 14 7 21 15 7 8 18 15 26 15 7 0 17 7 22 16 5 9 17 14
28 12 19 -4 21 -10 9 -39 -5 -14 3 -18 46 -24 28 -4 54 -3 58 2 7 9 59 15 79
8 17 -6 -39 -55 -62 -55 -9 0 -16 -4 -16 -9 0 -11 24 -21 53 -22 21 0 21 -1 3
-8 -26 -10 -3 -25 24 -16 13 4 20 14 19 28 -3 37 2 93 8 80 2 -7 12 -13 20
-13 11 0 13 -4 6 -12 -6 -7 -13 -26 -15 -41 -5 -26 -3 -28 18 -24 26 5 36 -5
38 -34 2 -35 20 -25 28 16 11 50 27 68 34 37 4 -12 14 -22 23 -23 11 0 10 -3
-5 -9 -37 -15 -38 -30 -3 -30 24 0 29 -3 21 -12 -12 -16 -10 -45 8 -80 12 -26
30 -38 30 -20 1 23 18 32 44 22 28 -10 72 3 62 18 -3 5 0 14 5 22 6 10 7 -8 3
-48 -3 -42 -2 -62 5 -58 6 4 8 13 4 21 -4 11 2 15 22 15 23 0 26 -4 22 -21 -3
-13 0 -22 10 -26 11 -4 13 -14 9 -37 -4 -20 -3 -26 3 -17 5 8 16 11 25 8 8 -3
18 -2 21 3 11 18 36 11 33 -8 -2 -11 3 -26 11 -35 11 -14 11 -20 1 -32 -10
-12 -9 -16 5 -21 9 -4 21 -2 28 5 6 6 18 11 26 11 11 0 10 -3 -4 -14 -15 -10
-17 -17 -8 -27 6 -8 9 -24 7 -36 -3 -17 2 -24 21 -29 20 -5 24 -11 21 -30 -4
-21 0 -26 24 -31 34 -6 55 -27 45 -44 -6 -8 -10 -8 -16 2 -4 7 -11 10 -15 6
-15 -15 16 -29 55 -25 42 4 52 -7 29 -30 -9 -9 -8 -12 4 -12 9 0 19 6 21 13 3
6 6 -3 6 -20 1 -27 -4 -34 -24 -39 -28 -7 -34 -31 -9 -41 9 -3 24 3 35 16 23
24 42 23 47 -1 2 -10 -7 -18 -21 -22 -34 -8 -40 -30 -16 -59 10 -14 19 -30 19
-36 0 -18 28 -12 33 7 4 16 5 16 6 0 1 -25 21 -23 21 2 0 13 7 20 19 20 14 0
18 -5 14 -21 -3 -11 -12 -23 -19 -26 -8 -3 -14 -15 -14 -27 0 -23 33 -71 48
-71 5 0 21 -15 37 -33 22 -26 25 -35 15 -47 -7 -8 -21 -15 -31 -15 -11 0 -19
-4 -19 -10 0 -5 5 -10 10 -10 6 0 10 -10 11 -22 0 -13 3 -17 6 -10 5 14 33 17
33 3 0 -4 11 -24 24 -44 16 -24 20 -34 10 -30 -12 4 -14 0 -8 -21 3 -15 1 -32
-6 -40 -9 -12 -7 -19 9 -35 15 -15 19 -28 15 -51 -4 -16 -10 -30 -15 -30 -5 0
-9 -9 -9 -20 0 -13 5 -18 15 -14 9 4 15 0 15 -10 0 -9 -8 -16 -17 -16 -14 0
-18 -9 -20 -45 -1 -25 3 -47 8 -50 5 -4 9 -19 9 -36 0 -25 4 -29 26 -29 21 0
24 -3 15 -14 -9 -11 -6 -17 14 -30 27 -18 34 -46 11 -46 -13 0 -26 -59 -26
-121 0 -16 -4 -29 -10 -29 -5 0 -10 5 -10 12 0 9 -3 9 -11 1 -12 -12 4 -52 27
-66 12 -7 11 -12 -1 -31 -8 -12 -12 -25 -9 -29 4 -3 -1 -13 -10 -23 -10 -9
-14 -24 -11 -34 6 -18 -1 -28 -38 -53 -14 -10 -16 -17 -8 -37 7 -18 10 -20 10
-7 1 9 6 17 11 17 6 0 10 4 10 10 0 5 14 33 32 62 50 84 69 128 62 140 -4 6
-3 8 3 5 10 -6 102 162 147 270 14 35 38 89 52 120 14 32 33 76 43 98 47 106
71 214 71 318 0 83 0 83 -52 161 -7 10 -23 29 -35 42 -24 25 -30 49 -13 59 6
3 10 11 10 17 0 7 -6 6 -15 -2 -12 -10 -18 -10 -30 0 -21 17 -5 42 36 55 36
13 51 35 22 35 -15 0 -15 2 -3 10 21 13 10 19 -41 24 -24 3 -46 5 -48 5 -2 1
1 7 6 14 16 19 22 57 10 57 -6 0 -2 6 9 14 16 12 16 15 4 20 -8 3 -22 5 -30 4
-46 -4 -62 2 -57 22 3 10 -1 25 -9 31 -11 9 -12 15 -3 26 14 17 9 22 -25 29
-18 3 -28 -1 -32 -11 -9 -23 -23 -8 -17 18 l6 22 -25 -23 c-43 -39 -46 -6 -4
37 40 41 46 57 16 41 -25 -13 -46 -4 -31 14 6 7 8 16 4 19 -6 6 -13 6 -75 -8
-23 -4 -28 -2 -28 13 0 11 9 31 20 45 11 14 20 30 20 35 0 5 7 15 15 22 25 20
17 30 -22 27 -31 -2 -38 1 -37 16 2 22 -5 22 -33 -5 -33 -31 -52 -12 -35 35
11 32 7 77 -8 77 -4 0 -13 -7 -20 -15 -17 -21 -37 -19 -50 5 -11 20 -11 20
-36 -5 -28 -28 -44 -25 -44 7 0 15 -3 18 -13 10 -8 -7 -17 -6 -30 3 -14 10
-16 17 -7 40 9 22 8 26 -6 23 -9 -2 -22 -12 -28 -23 -17 -30 -29 -35 -47 -19
-10 9 -14 24 -11 40 4 21 1 25 -14 22 -14 -2 -26 10 -45 47 -15 28 -30 61 -33
74 -16 55 -128 287 -180 371 -55 90 -102 147 -231 279 -163 167 -357 335 -462
397 -87 52 -142 97 -101 81 10 -3 30 -2 45 3 15 4 45 11 66 15 22 3 37 11 37
20 0 8 6 18 13 22 8 4 16 16 20 26 8 22 65 47 106 47 28 0 106 28 86 31 -5 1
-14 2 -20 4 -5 1 -39 3 -74 3 -71 2 -74 9 -9 23 24 6 53 20 66 32 13 12 42 30
65 40 l42 18 -77 -5 c-52 -3 -78 -1 -78 6 0 6 -8 4 -17 -4 -28 -24 -83 -49
-93 -43 -18 11 -11 32 17 50 l26 18 -26 13 c-30 16 -66 14 -85 -3 -17 -17 -32
-16 -32 0 0 14 80 84 119 105 13 7 38 14 55 16 16 2 32 8 34 15 4 13 -22 14
-66 2 -25 -8 -32 -7 -29 2 4 13 124 76 145 77 8 0 28 7 45 15 18 8 50 19 72
24 36 8 32 9 -45 11 -47 1 -93 2 -102 1 -10 -1 -25 2 -34 7 -14 8 -11 13 22
36 21 14 44 26 50 26 6 0 21 12 35 26 l24 26 -22 -6 c-33 -10 -28 5 9 36 22
18 28 28 17 28 -8 0 -26 -12 -40 -26 -13 -14 -42 -34 -64 -45 -22 -11 -52 -29
-67 -41 -15 -12 -30 -19 -34 -15 -10 9 46 76 96 114 38 30 41 35 19 29 -19 -4
-29 -1 -33 10 -4 11 -10 12 -25 4 -32 -17 -43 -13 -31 11 7 12 17 18 27 15 8
-3 21 1 29 9 14 13 13 15 -10 15 -14 0 -26 5 -26 10 0 6 6 10 14 10 18 0 39
26 32 39 -4 5 -21 6 -43 1 -67 -15 -133 -20 -133 -10 0 5 17 19 38 30 32 18
33 20 10 15 -21 -4 -28 -1 -28 10 0 8 5 15 12 15 6 0 9 3 6 6 -7 6 -84 -31
-93 -46 -8 -12 -25 -13 -25 -1 0 5 15 18 33 29 17 12 51 35 75 51 30 22 42 26
42 16 0 -11 14 -6 49 17 27 18 47 37 44 41 -6 9 17 28 62 52 61 33 81 47 60
41 -45 -12 -140 -47 -159 -59 -12 -8 -29 -17 -39 -20 -17 -6 -16 -4 2 22 24
34 78 81 92 81 6 0 7 4 4 10 -3 5 7 18 23 28 17 9 46 38 67 62 20 25 48 52 61
60 13 8 24 18 24 22 0 11 3 12 -64 -22 -36 -18 -74 -30 -98 -30 -47 0 -47 15
2 48 28 18 30 22 12 22 -11 0 -37 -9 -56 -21 l-36 -21 0 26 c0 16 6 26 15 26
9 0 15 9 15 24 0 32 14 42 110 75 113 40 137 63 40 40 -25 -6 -60 -11 -79 -10
-19 0 -40 -4 -47 -10 -7 -6 -20 -9 -30 -7 -12 2 -6 14 29 48 41 42 114 108
151 138 9 7 16 18 16 24 0 6 -8 4 -18 -5 -10 -10 -24 -17 -32 -17 -20 0 28 34
98 69 34 17 62 35 62 40 0 10 -51 6 -97 -8 -43 -13 -42 1 2 25 38 20 44 43 23
89 -13 29 -16 30 -46 9 -24 -16 -29 -8 -9 17 15 19 47 32 47 19 0 -6 7 -10 16
-10 11 0 14 -6 9 -20 -5 -16 -3 -19 11 -13 15 5 16 2 11 -30 -6 -39 7 -49 31
-25 10 10 18 6 38 -17 l25 -30 -4 32 c-2 18 1 34 7 37 7 2 7 8 -1 17 -10 9
-13 10 -13 1 0 -7 -8 -12 -18 -12 -10 0 -23 -5 -29 -11 -8 -8 -13 -8 -18 0 -3
6 1 14 9 17 18 7 22 34 5 34 -7 0 -9 11 -5 30 5 26 2 30 -15 30 -15 0 -20 6
-18 23 2 12 0 27 -4 34 -4 7 2 18 14 27 25 17 43 12 35 -10 -3 -7 -1 -16 4
-19 6 -4 10 -19 10 -35 0 -16 5 -32 10 -35 6 -3 10 -16 11 -28 0 -22 0 -22 10
1 5 15 5 30 -1 42 -6 10 -10 28 -10 40 0 11 -7 32 -17 46 -15 24 -15 25 5 30
11 3 22 14 25 24 5 21 57 48 109 56 21 4 38 11 38 16 0 16 -133 -1 -143 -18
-8 -14 -47 -20 -47 -6 1 14 35 51 71 75 38 26 109 52 171 63 63 11 31 26 -41
19 l-66 -6 30 25 c17 15 49 28 75 32 40 6 43 8 22 17 -12 6 -22 13 -22 16 1
11 88 70 114 77 14 3 26 11 26 16 0 14 -59 0 -96 -23 -17 -10 -40 -19 -50 -19
-17 1 -16 3 6 23 28 24 51 67 57 107 4 22 2 23 -9 9 -7 -8 -31 -28 -53 -44
-22 -16 -42 -32 -45 -35 -3 -4 -16 -13 -29 -20 -21 -11 -23 -10 -18 5 4 9 7
20 7 24 0 23 58 64 158 112 34 17 45 19 57 9 9 -8 13 -21 9 -32 -5 -16 -2 -18
19 -13 20 5 28 1 43 -27 11 -18 29 -62 39 -98 18 -59 20 -62 25 -35 4 17 11
29 18 27 16 -3 15 2 -8 50 -11 23 -20 48 -20 55 0 7 -4 13 -10 13 -5 0 -10 10
-10 23 0 13 -6 32 -14 43 -13 16 -13 22 -1 41 13 20 13 22 -5 28 -11 4 -20 11
-20 16 0 6 -4 7 -10 4 -5 -3 -10 1 -10 10 0 28 20 55 40 55 10 0 20 5 22 10 2
6 31 15 65 21 84 15 70 31 -20 22 -66 -6 -71 -5 -58 10 14 18 2 24 -14 8 -16
-14 -79 -25 -71 -12 9 15 102 57 144 66 18 4 36 13 39 21 3 8 23 17 44 20 22
4 39 12 39 19 0 8 6 16 13 19 6 3 -5 3 -25 0 -24 -4 -38 -2 -38 4 0 6 -10 12
-22 14 -36 5 -27 31 19 53 43 20 55 35 29 35 -8 0 -18 5 -21 10 -9 14 13 40
32 40 8 0 26 9 40 20 l26 20 -37 0 c-20 0 -36 2 -36 4 0 3 13 19 29 37 26 28
34 31 70 26 22 -3 54 -12 71 -20 17 -9 37 -14 45 -11 7 3 35 -4 61 -15 26 -12
49 -19 52 -17 7 8 -180 94 -211 98 -15 2 -28 8 -28 13 0 14 51 19 64 6 6 -6
23 -11 38 -11 15 0 39 -7 55 -15 39 -20 43 -10 8 17 -36 29 -63 43 -99 52 -19
5 -25 10 -17 18 7 7 20 5 43 -5 112 -48 140 -51 48 -4 -35 17 -69 41 -74 53
-8 17 -15 19 -33 13 -23 -9 -52 -3 -52 11 0 4 9 19 20 32 25 33 15 43 -21 18
-33 -24 -96 -40 -85 -21 4 6 29 21 54 32 26 11 67 31 92 43 25 13 69 29 98 36
54 12 79 30 43 30 -29 0 -26 16 3 24 18 4 23 11 19 26 -4 14 0 20 13 20 9 0
15 2 12 5 -3 3 -20 2 -38 -2 -28 -5 -31 -8 -15 -14 13 -4 5 -6 -22 -5 -40 1
-41 2 -25 20 9 10 35 27 57 37 22 10 34 19 27 19 -8 0 -5 10 9 29 12 16 19 33
16 38 -4 6 7 25 23 44 16 19 29 40 30 47 0 6 5 12 10 12 6 0 10 5 10 11 0 19
41 64 63 69 12 3 23 13 25 22 3 15 -1 16 -30 7 -18 -5 -39 -9 -45 -9 -22 0
-14 26 12 38 16 7 23 17 19 26 -4 10 6 23 30 37 37 22 48 36 20 25 -34 -13
-36 8 -3 35 19 15 32 30 29 33 -3 3 -31 -17 -63 -44 -31 -27 -66 -52 -77 -55
-16 -5 -19 -12 -14 -28 3 -12 3 -19 -1 -15 -5 4 -13 0 -20 -9 -14 -19 -37 -9
-28 12 3 9 -1 15 -10 15 -8 0 -17 4 -19 9 -1 4 -14 12 -27 16 -20 6 -23 4 -18
-9 7 -18 -10 -21 -33 -6 -13 9 -12 12 5 22 11 7 23 13 28 14 20 4 20 6 2 14
-18 8 -18 9 -2 9 11 1 17 7 15 19 -2 14 5 17 45 19 39 2 54 8 77 33 15 16 34
30 41 30 7 0 29 11 48 24 57 37 135 80 151 82 34 5 106 27 115 35 13 12 -31
11 -96 -2 -30 -6 -63 -12 -74 -13 -11 -1 -45 -16 -75 -34 -59 -34 -70 -38 -70
-21 0 5 26 22 57 36 32 15 62 31 68 35 5 5 37 22 70 38 42 20 53 29 37 29 -12
1 -33 -5 -45 -13 -29 -18 -77 -29 -77 -17 0 5 17 23 38 39 20 17 34 33 31 36
-3 4 -27 -12 -52 -35 -26 -22 -52 -39 -59 -37 -8 3 -1 14 16 29 53 46 137 131
134 135 -2 2 -26 -15 -53 -37 -66 -55 -99 -71 -113 -57 -8 8 -18 6 -37 -6 -14
-9 -30 -14 -36 -11 -5 4 -16 2 -23 -4 -10 -8 -16 -8 -25 3 -10 11 -6 18 17 35
16 11 33 17 37 13 5 -4 5 -2 2 4 -4 6 2 19 13 29 11 10 20 27 20 39 0 17 -5
14 -24 -15 -24 -35 -93 -85 -104 -75 -3 3 1 13 8 22 12 13 11 17 -1 25 -9 6
-18 3 -26 -8 -7 -9 -13 -13 -13 -8 0 5 -6 2 -12 -6 -7 -8 -26 -25 -42 -39
l-29 -25 7 30 c6 28 5 29 -8 11 -9 -10 -17 -24 -20 -30 -3 -7 -8 -6 -16 4 -9
11 -13 12 -17 3 -2 -7 -9 -13 -15 -13 -10 0 -9 12 7 86 5 22 4 25 -4 14 -9
-12 -11 -11 -12 10 -1 14 -1 28 0 33 2 16 -10 6 -19 -15 -7 -18 -9 -6 -11 47
-1 39 -1 94 0 123 3 61 -3 67 -16 15z m-89 -262 c-8 -9 -22 12 -17 26 6 15 7
14 13 -3 4 -10 6 -21 4 -23z m439 -93 c-13 -12 -26 -19 -29 -15 -4 4 1 14 12
22 29 22 41 18 17 -7z m-516 -110 c-3 -7 -5 -2 -5 12 0 14 2 19 5 13 2 -7 2
-19 0 -25z m46 -74 c9 -10 -4 -34 -19 -34 -8 0 -14 6 -14 13 0 22 19 35 33 21z
m-59 -26 c-3 -37 -16 -68 -25 -62 -5 3 -9 0 -9 -6 0 -7 8 -9 21 -5 15 5 19 4
15 -4 -13 -21 23 -11 47 13 17 17 32 23 46 19 31 -8 23 -39 -8 -35 -13 2 -21
0 -18 -5 3 -5 2 -15 -3 -23 -7 -11 -12 -11 -23 -2 -12 10 -16 9 -21 -3 -3 -9
-11 -13 -17 -9 -8 4 -9 -3 -4 -25 7 -33 -9 -66 -26 -55 -13 7 -11 48 2 61 17
17 0 35 -26 29 -31 -8 -37 14 -11 38 23 21 24 20 -33 5 -8 -3 -18 11 -27 34
-14 39 -3 50 18 17 8 -13 23 -20 43 -20 l30 1 -23 19 c-21 17 -21 19 -5 29 32
19 59 13 57 -11z m306 -147 c14 -27 13 -41 -4 -35 -15 6 -28 54 -15 54 5 0 13
-9 19 -19z m-277 -46 c4 -8 2 -17 -3 -20 -6 -4 -10 3 -10 14 0 25 6 27 13 6z
m252 -5 c3 -5 -1 -10 -10 -10 -9 0 -13 5 -10 10 3 6 8 10 10 10 2 0 7 -4 10
-10z m211 -68 c-16 -19 -94 -48 -102 -39 -9 9 76 55 105 56 11 1 10 -3 -3 -17z
m-419 -14 c-3 -8 -6 -5 -6 6 -1 11 2 17 5 13 3 -3 4 -12 1 -19z m-177 -54 c11
-28 -5 -73 -20 -58 -18 19 -13 84 6 84 2 0 9 -12 14 -26z m567 0 c-3 -3 -12
-4 -19 -1 -8 3 -5 6 6 6 11 1 17 -2 13 -5z m-79 -32 c-18 -15 -51 -41 -73 -57
-22 -16 -43 -34 -47 -39 -4 -6 -9 -8 -12 -5 -8 7 5 49 15 49 5 0 9 6 9 13 0
16 87 65 118 66 21 1 20 -1 -10 -27z m-164 -93 c-20 -23 -34 -25 -34 -5 0 19
44 50 48 36 2 -6 -4 -20 -14 -31z m-513 -50 c-21 -48 -36 -27 -26 37 l6 45 18
-22 c17 -21 17 -25 2 -60z m709 77 c0 -2 -9 -6 -20 -9 -11 -3 -18 -1 -14 4 5
9 34 13 34 5z m-630 -126 c0 -5 -4 -10 -10 -10 -5 0 -10 5 -10 10 0 6 5 10 10
10 6 0 10 -4 10 -10z m-329 -383 c-1 -12 -15 -9 -19 4 -3 6 1 10 8 8 6 -3 11
-8 11 -12z m-60 -79 c1 -7 1 -16 0 -20 0 -5 4 -8 10 -8 5 0 7 -5 4 -10 -5 -8
-11 -7 -21 1 -11 9 -16 7 -22 -12 l-9 -23 -5 27 c-3 14 -1 24 3 21 5 -3 9 4 9
15 0 22 29 30 31 9z m-28 -120 c5 -37 0 -51 -14 -43 -12 8 -12 75 0 75 5 0 11
-15 14 -32z m107 -34 c0 -14 -4 -23 -10 -19 -5 3 -10 15 -10 26 0 10 5 19 10
19 6 0 10 -12 10 -26z m383 -96 c-13 -12 -26 -18 -30 -14 -4 4 1 14 11 22 31
22 43 17 19 -8z m187 9 c0 -8 -17 -19 -37 -25 -90 -26 -104 -22 -50 16 35 24
87 30 87 9z m-730 -183 c0 -8 -4 -14 -10 -14 -5 0 -10 9 -10 21 0 11 5 17 10
14 6 -3 10 -13 10 -21z m540 -78 c6 -19 18 -40 26 -46 16 -14 19 -40 4 -40 -6
0 -15 11 -20 24 -5 13 -14 27 -20 31 -5 3 -8 10 -5 15 3 4 -2 10 -10 14 -19 7
-20 36 -1 36 8 0 20 -15 26 -34z m-61 -25 c23 -15 7 -34 -60 -74 -35 -21 -72
-43 -81 -50 -9 -6 -20 -8 -24 -4 -14 13 113 136 141 136 6 1 16 -3 24 -8z
m-89 -279 c0 -5 -11 -14 -25 -20 -28 -13 -35 1 -7 17 21 13 32 14 32 3z m-690
-118 c0 -8 -4 -12 -10 -9 -5 3 -10 10 -10 16 0 5 5 9 10 9 6 0 10 -7 10 -16z
m430 -174 c0 -5 -9 -14 -20 -20 -16 -8 -20 -8 -20 4 0 13 13 23 33 25 4 1 7
-3 7 -9z m-690 -234 c0 -19 -4 -38 -10 -41 -6 -4 -10 10 -10 34 0 23 5 41 10
41 6 0 10 -15 10 -34z m0 -66 c0 -5 -4 -10 -10 -10 -5 0 -10 5 -10 10 0 6 5
10 10 10 6 0 10 -4 10 -10z m380 -169 c0 -6 -4 -13 -10 -16 -5 -3 -10 1 -10 9
0 9 5 16 10 16 6 0 10 -4 10 -9z m-70 -309 c0 -13 -12 -22 -22 -16 -10 6 -1
24 13 24 5 0 9 -4 9 -8z m-400 -41 c0 -37 -10 -62 -21 -55 -10 6 -12 67 -2 77
14 15 23 6 23 -22z m490 -1 c0 -5 -4 -10 -10 -10 -5 0 -10 5 -10 10 0 6 5 10
10 10 6 0 10 -4 10 -10z m-560 -57 c0 -15 -6 -23 -16 -23 -11 0 -14 5 -10 16
3 9 6 25 6 37 0 18 2 19 10 7 5 -8 10 -25 10 -37z m626 12 c-36 -24 -56 -31
-56 -19 0 14 47 43 69 44 22 0 20 -2 -13 -25z m-613 -78 c-3 -5 -9 -3 -14 4
-4 7 -5 17 -2 22 3 5 9 3 14 -4 4 -7 5 -17 2 -22z m-83 -168 c0 -44 -4 -68
-10 -64 -5 3 -10 38 -10 76 0 44 4 68 10 64 6 -3 10 -38 10 -76z m430 -199 c0
-5 -4 -10 -10 -10 -5 0 -10 5 -10 10 0 6 5 10 10 10 6 0 10 -4 10 -10z m150
-49 c0 -5 -11 -11 -25 -13 -29 -6 -33 6 -8 21 18 10 33 6 33 -8z m-19 -41
c-24 -21 -51 -26 -51 -12 0 11 39 31 60 31 10 0 8 -6 -9 -19z m-63 -108 c-6
-7 -18 -12 -27 -10 -9 1 -22 -1 -28 -5 -7 -5 -13 -4 -13 0 0 17 19 28 49 28
23 0 27 -3 19 -13z m-88 -20 c0 -11 -41 -34 -48 -27 -4 4 2 13 12 21 22 15 36
18 36 6z m-541 -53 c9 -27 9 -30 -4 -19 -8 7 -15 21 -15 31 0 28 7 23 19 -12z
m-2 -125 c-4 -4 -14 1 -22 12 -22 29 -18 41 7 17 12 -13 19 -26 15 -29z m629
-40 c-11 -7 -22 -11 -25 -8 -3 3 3 12 13 20 11 7 22 11 25 8 3 -3 -3 -12 -13
-20z m-787 -64 c41 -26 73 -60 56 -60 -18 0 -115 65 -115 76 0 19 3 18 59 -16z
m36 -91 c43 -40 55 -59 37 -59 -11 0 -92 81 -92 92 0 14 10 9 55 -33z m242
-1355 c-3 -3 -12 -4 -19 -1 -8 3 -5 6 6 6 11 1 17 -2 13 -5z m168 -34 c3 -5
-3 -10 -15 -10 -12 0 -18 5 -15 10 3 6 10 10 15 10 5 0 12 -4 15 -10z m563
-12 c-7 -20 -58 -23 -58 -4 0 11 10 16 31 16 20 0 29 -4 27 -12z m397 -228
c-3 -5 -11 -10 -16 -10 -6 0 -7 5 -4 10 3 6 11 10 16 10 6 0 7 -4 4 -10z m75
-11 c0 -5 -4 -9 -10 -9 -5 0 -10 7 -10 16 0 8 5 12 10 9 6 -3 10 -10 10 -16z
m67 -81 c-3 -8 -6 -5 -6 6 -1 11 2 17 5 13 3 -3 4 -12 1 -19z m93 -79 c0 -5
-7 -9 -15 -9 -15 0 -20 12 -9 23 8 8 24 -1 24 -14z m-2370 -59 c0 -5 -2 -10
-4 -10 -3 0 -8 5 -11 10 -3 6 -1 10 4 10 6 0 11 -4 11 -10z m2744 -435 c4 -10
-1 -15 -14 -15 -13 0 -18 5 -14 15 4 8 10 15 14 15 4 0 10 -7 14 -15z m-7 -47
c-3 -8 -6 -5 -6 6 -1 11 2 17 5 13 3 -3 4 -12 1 -19z m76 -105 c4 -19 2 -33
-3 -33 -6 0 -10 9 -10 20 0 11 -5 20 -11 20 -8 0 -7 5 1 15 15 19 16 18 23
-22z m-3186 -35 c-3 -7 -5 -2 -5 12 0 14 2 19 5 13 2 -7 2 -19 0 -25z m3313
-269 c0 -11 -4 -17 -10 -14 -5 3 -10 13 -10 21 0 8 5 14 10 14 6 0 10 -9 10
-21z m-3460 -219 c0 -5 -2 -10 -4 -10 -3 0 -8 5 -11 10 -3 6 -1 10 4 10 6 0
11 -4 11 -10z m3444 -11 c-8 -14 -24 -10 -24 6 0 9 6 12 15 9 8 -4 12 -10 9
-15z m-3413 -26 l-4 -38 -8 30 c-7 25 -2 39 16 45 1 0 -1 -17 -4 -37z m3376
-15 c-3 -8 -6 -5 -6 6 -1 11 2 17 5 13 3 -3 4 -12 1 -19z m45 -28 c-2 -16 -8
-30 -13 -30 -10 0 -12 43 -2 53 14 14 19 6 15 -23z m25 -52 c-3 -7 -5 -2 -5
12 0 14 2 19 5 13 2 -7 2 -19 0 -25z m-3517 -62 c0 -3 -4 -8 -10 -11 -5 -3
-10 -1 -10 4 0 6 5 11 10 11 6 0 10 -2 10 -4z m55 -66 c3 -5 -1 -10 -9 -10 -9
0 -16 5 -16 10 0 6 4 10 9 10 6 0 13 -4 16 -10z m55 -41 c0 -4 -11 -6 -24 -6
-17 0 -23 4 -19 14 4 10 9 11 19 2 12 -10 13 -8 8 7 -5 16 -4 16 5 4 6 -8 11
-18 11 -21z m-35 -109 c3 -5 1 -10 -4 -10 -6 0 -11 5 -11 10 0 6 2 10 4 10 3
0 8 -4 11 -10z m65 -121 c0 -5 -4 -9 -10 -9 -5 0 -10 7 -10 16 0 8 5 12 10 9
6 -3 10 -10 10 -16z m155 -459 c3 -5 1 -10 -4 -10 -6 0 -11 5 -11 10 0 6 2 10
4 10 3 0 8 -4 11 -10z m115 -83 c0 -5 -4 -5 -10 -2 -5 3 -10 14 -10 23 0 15 2
15 10 2 5 -8 10 -19 10 -23z m20 -47 c0 -5 -4 -10 -10 -10 -5 0 -10 5 -10 10
0 6 5 10 10 10 6 0 10 -4 10 -10z"/>
<path d="M5836 11361 c-10 -11 -16 -25 -14 -32 2 -7 12 0 22 16 21 32 16 43
-8 16z"/>
<path d="M5482 11335 c-6 -14 -8 -25 -3 -25 8 0 23 41 17 47 -1 2 -8 -8 -14
-22z"/>
<path d="M5790 11265 c-7 -9 -10 -18 -7 -22 8 -7 37 15 37 28 0 14 -16 11 -30
-6z"/>
<path d="M5495 11249 c-4 -6 -5 -12 -2 -15 2 -3 7 2 10 11 7 17 1 20 -8 4z"/>
<path d="M5715 10910 c-3 -5 -1 -10 4 -10 6 0 11 5 11 10 0 6 -2 10 -4 10 -3
0 -8 -4 -11 -10z"/>
<path d="M5629 10823 c-13 -17 -13 -17 6 -3 11 8 22 16 24 17 2 2 0 3 -6 3 -6
0 -17 -8 -24 -17z"/>
<path d="M4910 10725 c0 -5 5 -17 10 -25 5 -8 10 -10 10 -5 0 6 -5 17 -10 25
-5 8 -10 11 -10 5z"/>
<path d="M5828 10703 c7 -3 16 -2 19 1 4 3 -2 6 -13 5 -11 0 -14 -3 -6 -6z"/>
<path d="M4810 10586 c0 -15 21 -56 29 -56 5 0 3 14 -5 30 -14 27 -24 38 -24
26z"/>
<path d="M4763 10467 l-1 -42 10 34 c5 19 5 38 1 42 -5 5 -9 -10 -10 -34z"/>
<path d="M4661 10295 c0 -13 28 -50 33 -44 3 2 -4 15 -14 29 -11 14 -20 21
-19 15z"/>
<path d="M4580 10139 c7 -11 14 -18 17 -15 8 8 -5 36 -17 36 -7 0 -7 -6 0 -21z"/>
<path d="M5400 9910 c0 -13 30 -13 50 0 11 7 7 10 -17 10 -18 0 -33 -4 -33
-10z"/>
<path d="M4457 9800 c7 -25 23 -37 23 -17 0 8 -6 20 -14 26 -12 10 -13 8 -9
-9z"/>
<path d="M4375 9543 c4 -10 10 -26 13 -36 3 -14 7 -15 12 -6 9 14 -8 59 -23
59 -5 0 -6 -8 -2 -17z"/>
<path d="M4319 9342 c5 -34 6 -35 9 -8 2 16 0 32 -5 37 -5 5 -7 -7 -4 -29z"/>
<path d="M4270 9050 c0 -5 5 -10 11 -10 5 0 7 5 4 10 -3 6 -8 10 -11 10 -2 0
-4 -4 -4 -10z"/>
<path d="M4740 8750 c0 -5 5 -10 10 -10 6 0 10 5 10 10 0 6 -4 10 -10 10 -5 0
-10 -4 -10 -10z"/>
<path d="M4775 8671 c-3 -5 -1 -12 5 -16 5 -3 10 1 10 9 0 18 -6 21 -15 7z"/>
<path d="M4760 8461 c0 -5 7 -12 16 -15 14 -5 15 -4 4 9 -14 17 -20 19 -20 6z"/>
<path d="M3746 8387 c3 -10 9 -15 12 -12 3 3 0 11 -7 18 -10 9 -11 8 -5 -6z"/>
<path d="M4447 8243 c-10 -9 -9 -23 2 -23 5 0 11 7 15 15 5 15 -5 20 -17 8z"/>
<path d="M4431 8126 c-8 -9 -11 -19 -7 -23 9 -9 29 13 24 27 -2 8 -8 7 -17 -4z"/>
<path d="M3521 8028 c-1 -15 4 -30 9 -33 12 -7 12 12 0 40 -8 18 -9 17 -9 -7z"/>
<path d="M4565 7860 c-3 -5 1 -10 9 -10 9 0 16 5 16 10 0 6 -4 10 -9 10 -6 0
-13 -4 -16 -10z"/>
<path d="M4383 7653 c-18 -9 -33 -20 -33 -25 0 -11 18 -10 25 2 3 6 14 10 24
10 10 0 24 7 31 15 17 20 -4 19 -47 -2z"/>
<path d="M3301 7324 c1 -21 16 -47 21 -38 4 5 0 18 -8 29 -8 10 -14 15 -13 9z"/>
<path d="M4458 7163 c7 -3 16 -2 19 1 4 3 -2 6 -13 5 -11 0 -14 -3 -6 -6z"/>
<path d="M4435 7009 c-4 -6 -5 -12 -2 -15 2 -3 7 2 10 11 7 17 1 20 -8 4z"/>
<path d="M3988 5493 c7 -3 16 -2 19 1 4 3 -2 6 -13 5 -11 0 -14 -3 -6 -6z"/>
<path d="M3709 5460 c27 -23 47 -25 54 -6 4 9 -4 16 -25 20 -49 10 -55 7 -29
-14z"/>
<path d="M3898 5473 c7 -3 16 -2 19 1 4 3 -2 6 -13 5 -11 0 -14 -3 -6 -6z"/>
<path d="M3630 5434 c0 -8 5 -12 10 -9 6 4 8 11 5 16 -9 14 -15 11 -15 -7z"/>
<path d="M3680 5434 c0 -8 5 -12 10 -9 6 4 8 11 5 16 -9 14 -15 11 -15 -7z"/>
<path d="M3536 5397 c3 -10 9 -15 12 -12 3 3 0 11 -7 18 -10 9 -11 8 -5 -6z"/>
<path d="M4617 5274 c-8 -8 1 -24 14 -24 5 0 9 7 9 15 0 15 -12 20 -23 9z"/>
<path d="M2800 5045 c0 -8 6 -15 14 -15 22 0 28 17 10 24 -22 9 -24 8 -24 -9z"/>
<path d="M5330 4490 c0 -4 9 -10 20 -13 11 -3 20 -2 20 3 0 4 -9 10 -20 13
-11 3 -20 2 -20 -3z"/>
<path d="M2320 4295 c-14 -16 -3 -20 19 -6 8 5 9 11 3 15 -5 3 -15 -1 -22 -9z"/>
<path d="M5556 4215 c-3 -8 -12 -15 -21 -15 -23 0 -18 -14 12 -27 52 -24 62
-17 41 30 -15 30 -23 34 -32 12z"/>
<path d="M5520 4030 c0 -5 7 -10 15 -10 8 0 15 5 15 10 0 6 -7 10 -15 10 -8 0
-15 -4 -15 -10z"/>
<path d="M2280 3964 c0 -8 5 -12 10 -9 6 3 10 10 10 16 0 5 -4 9 -10 9 -5 0
-10 -7 -10 -16z"/>
<path d="M2238 3808 c14 -18 47 -13 35 5 -5 8 -8 7 -11 -1 -3 -10 -7 -10 -20
0 -15 12 -15 11 -4 -4z"/>
<path d="M5660 3740 c-13 -8 -12 -10 3 -10 9 0 17 5 17 10 0 12 -1 12 -20 0z"/>
<path d="M2365 3397 c-4 -10 -5 -21 -1 -24 10 -10 18 4 13 24 -4 17 -4 17 -12
0z"/>
<path d="M5525 3320 c-4 -6 -4 -14 -1 -17 3 -4 6 -1 6 5 0 7 4 12 8 12 4 0 7
-16 7 -35 -1 -19 2 -32 6 -30 3 3 6 19 5 37 -2 32 -19 48 -31 28z"/>
<path d="M5509 3263 c-1 -5 -1 -12 0 -17 1 -5 -5 -6 -14 -3 -18 8 -19 3 -3
-23 7 -10 9 -23 5 -27 -5 -4 -12 -1 -16 6 -7 10 -10 9 -16 -8 -3 -11 -3 -26 1
-33 6 -10 5 -10 -7 -1 -13 10 -15 8 -13 -15 1 -15 2 -28 3 -30 2 -5 47 51 54
68 4 8 15 26 24 40 11 15 13 21 4 16 -10 -7 -12 -4 -6 13 4 12 2 21 -4 21 -6
0 -12 -3 -12 -7z"/>
<path d="M2428 3243 c6 -2 18 -2 25 0 6 3 1 5 -13 5 -14 0 -19 -2 -12 -5z"/>
<path d="M5443 3215 c-3 -9 -3 -18 -1 -21 3 -3 8 4 11 16 6 23 -1 27 -10 5z"/>
<path d="M5420 3100 c0 -5 -8 -10 -17 -10 -14 0 -15 -2 -4 -9 17 -11 -1 -23
-23 -15 -9 3 -16 1 -16 -6 0 -6 4 -9 9 -6 5 4 11 1 13 -5 2 -6 16 2 31 17 28
28 34 44 17 44 -5 0 -10 -4 -10 -10z"/>
<path d="M5338 3093 c7 -3 16 -2 19 1 4 3 -2 6 -13 5 -11 0 -14 -3 -6 -6z"/>
<path d="M5320 3020 c0 -5 5 -10 10 -10 6 0 10 5 10 10 0 6 -4 10 -10 10 -5 0
-10 -4 -10 -10z"/>
<path d="M2480 3004 c0 -8 5 -12 10 -9 6 4 18 1 26 -6 13 -10 17 -10 24 1 11
17 13 16 -27 23 -26 5 -33 3 -33 -9z"/>
<path d="M4126 2372 c-3 -5 1 -9 9 -9 8 0 12 4 9 9 -3 4 -7 8 -9 8 -2 0 -6 -4
-9 -8z"/>
<path d="M4020 2350 c-9 -6 -10 -10 -3 -10 6 0 15 5 18 10 8 12 4 12 -15 0z"/>
<path d="M3610 2340 c-8 -5 -19 -6 -25 -4 -5 3 -3 0 6 -8 9 -7 23 -26 32 -43
16 -32 121 -150 134 -151 4 0 20 -6 35 -13 29 -15 103 -7 93 9 -3 6 1 7 9 4
20 -8 58 14 50 28 -5 7 -1 9 9 5 24 -9 90 32 82 51 -4 12 -3 13 10 2 12 -10
16 -8 25 14 5 14 15 26 21 26 8 0 8 -5 -1 -15 -10 -13 -6 -12 18 2 18 10 32
22 32 28 0 5 -5 4 -12 -3 -20 -20 -32 -13 -14 7 11 12 14 21 7 26 -6 3 -11 2
-11 -3 0 -5 -12 -22 -28 -38 -21 -22 -37 -29 -65 -29 -21 0 -39 -6 -42 -13 -3
-7 0 -10 5 -7 6 3 10 1 10 -4 0 -21 -37 -11 -50 14 -7 14 -17 25 -22 25 -14 0
-9 -27 7 -40 12 -10 13 -16 3 -27 -10 -12 -14 -11 -25 9 -12 20 -13 21 -8 2 6
-23 -20 -52 -52 -58 -29 -6 -71 34 -67 62 3 16 0 21 -8 16 -6 -4 -8 -3 -4 4 3
6 -2 15 -11 21 -17 9 -17 10 -1 16 24 10 13 25 -18 25 -14 0 -22 4 -19 10 3 5
-6 12 -20 16 -14 3 -25 10 -25 15 0 5 -4 9 -10 9 -14 0 -12 -24 3 -38 6 -7 12
-24 12 -38 l1 -24 -23 26 c-28 33 -30 43 -3 19 11 -10 20 -14 20 -8 0 5 -9 18
-19 27 -11 10 -21 27 -23 37 -2 13 -7 16 -18 9z"/>
<path d="M3880 2330 c0 -5 7 -10 15 -10 8 0 15 5 15 10 0 6 -7 10 -15 10 -8 0
-15 -4 -15 -10z"/>
<path d="M4068 2321 c11 -7 11 -9 -2 -14 -8 -3 -17 -1 -20 6 -2 7 -5 4 -5 -5
-1 -21 22 -24 38 -5 11 14 5 27 -13 27 -6 0 -5 -4 2 -9z"/>
<path d="M3924 2292 c3 -5 0 -13 -6 -15 -9 -4 -10 -6 -1 -6 17 -1 25 16 12 25
-7 4 -9 3 -5 -4z"/>
<path d="M3798 2282 c-17 -3 -26 -23 -10 -21 18 3 26 -2 15 -9 -7 -4 8 -7 33
-6 53 2 76 17 48 32 -19 10 -54 12 -86 4z m89 -15 c2 -3 0 -8 -6 -12 -6 -3
-11 -2 -11 4 0 6 -6 8 -14 5 -8 -3 -23 -1 -33 4 -14 8 -9 10 21 7 21 -2 40 -6
43 -8z"/>
<path d="M3957 2264 c7 -3 9 -13 6 -22 -4 -14 -3 -14 5 -2 12 16 7 30 -11 29
-9 0 -9 -2 0 -5z"/>
<path d="M3130 1725 l0 -105 40 0 c30 0 47 7 65 25 31 30 31 45 4 74 -16 17
-18 26 -10 34 32 32 -2 77 -60 77 l-39 0 0 -105z m74 89 c22 -9 20 -51 -3 -64
-38 -20 -51 -13 -51 30 0 41 13 50 54 34z m20 -100 c35 -34 12 -74 -41 -74
-32 0 -33 1 -33 45 0 43 1 45 29 45 16 0 37 -7 45 -16z"/>
<path d="M3347 1814 c-16 -8 -34 -29 -41 -45 -51 -121 127 -207 195 -95 27 44
24 80 -9 117 -34 38 -100 49 -145 23z m122 -21 c39 -37 45 -71 21 -111 -25
-40 -72 -55 -119 -35 -43 17 -60 40 -61 78 -1 83 98 125 159 68z"/>
<path d="M3572 1728 l-2 -108 50 0 c29 0 50 5 50 11 0 6 -17 9 -42 7 l-43 -3
-6 100 -5 100 -2 -107z"/>
<path d="M3710 1725 c0 -58 4 -105 9 -105 5 0 9 47 9 105 0 58 -4 105 -9 105
-5 0 -9 -47 -9 -105z"/>
<path d="M3773 1816 c31 -81 82 -185 88 -179 14 16 88 193 80 193 -5 0 -24
-37 -44 -81 -34 -81 -35 -82 -50 -58 -9 13 -26 50 -38 82 -12 31 -26 57 -31
57 -6 0 -8 -6 -5 -14z"/>
<path d="M3994 1725 c0 -60 1 -84 3 -52 2 32 2 81 0 110 -2 29 -3 3 -3 -58z"/>
<path d="M4099 1734 c-55 -121 -52 -114 -42 -114 5 0 15 16 22 35 12 34 14 35
65 35 51 0 53 -1 71 -37 10 -21 20 -33 22 -27 3 9 -77 188 -90 201 -2 2 -24
-40 -48 -93z m67 21 c20 -49 18 -55 -21 -55 -19 0 -35 4 -35 10 0 11 32 80 37
80 2 0 11 -16 19 -35z"/>
<path d="M1710 1415 l0 -114 113 -3 112 -3 3 -472 2 -473 135 0 135 0 0 475 0
475 115 0 115 0 0 115 0 115 -365 0 -365 0 0 -115z"/>
<path d="M2560 940 l0 -590 138 0 137 0 -3 590 -2 590 -135 0 -135 0 0 -590z"/>
<path d="M3037 1523 c-4 -3 -7 -269 -7 -590 l0 -583 125 0 125 0 0 168 c0 151
-10 343 -25 507 -4 38 -3 55 3 45 5 -8 58 -174 117 -367 l108 -353 144 0 143
0 0 590 0 590 -122 0 -121 0 6 -287 c4 -159 9 -322 12 -363 l5 -75 -51 155
c-84 256 -146 452 -164 513 l-16 57 -138 0 c-76 0 -141 -3 -144 -7z"/>
<path d="M3970 940 l0 -590 135 0 135 0 0 155 c0 148 1 157 27 210 15 30 30
55 33 55 3 0 37 -93 77 -207 l71 -208 142 -3 142 -3 -8 23 c-4 13 -62 162
-130 332 l-123 308 130 259 129 259 -139 0 -138 0 -106 -247 -106 -248 -1 248
0 247 -135 0 -135 0 0 -590z"/>
<path d="M4820 1133 c0 -219 5 -438 10 -488 26 -223 129 -315 356 -315 212 0
316 68 359 235 12 49 15 138 15 512 l0 453 -135 0 -135 0 0 -437 c0 -439 -4
-496 -36 -528 -25 -24 -96 -20 -123 9 -33 35 -41 144 -41 579 l0 377 -135 0
-135 0 0 -397z"/>
</g>
</svg>
