<svg version="1.1" id="Layer_1" xmlns="http://www.w3.org/2000/svg" xmlns:xlink="http://www.w3.org/1999/xlink" x="0px" y="0px"
	 width="100%" viewBox="0 0 225 225" enable-background="new 0 0 225 225" xml:space="preserve">
<path fill="#FDFDFD" opacity="1.000000" stroke="none" 
	d="
M109.000000,226.000000 
	C72.666672,226.000000 36.833336,226.000000 1.000005,226.000000 
	C1.000003,151.000000 1.000003,76.000015 1.000002,1.000015 
	C75.999992,1.000010 150.999985,1.000010 225.999969,1.000005 
	C225.999985,75.999985 225.999985,150.999969 226.000000,225.999969 
	C187.166672,226.000000 148.333328,226.000000 109.000000,226.000000 
M85.267479,90.817970 
	C84.779755,90.859146 84.292023,90.900322 83.804298,90.941490 
	C84.074120,91.418007 84.343941,91.894524 84.927673,92.942673 
	C85.502609,92.883713 86.077538,92.824753 86.652473,92.765800 
	C86.311737,92.279144 85.970993,91.792480 85.267479,90.817970 
M153.271667,144.845261 
	C152.884384,144.836273 152.497116,144.827301 151.772018,144.271088 
	C151.175690,144.525604 150.579361,144.780121 149.941666,145.624802 
	C149.943405,145.821991 149.945160,146.019196 149.338501,146.012222 
	C148.756714,146.663467 148.174927,147.314713 147.593140,147.965973 
	C149.040543,148.016937 150.487946,148.067886 151.986603,147.536789 
	C151.994324,147.342178 152.002045,147.147568 152.677765,147.075226 
	C153.309204,146.550079 153.940643,146.024933 154.925568,145.068604 
	C154.886673,144.814758 154.847778,144.560928 154.808899,144.307083 
	C154.490326,144.486206 154.171768,144.665314 153.271667,144.845261 
M92.269257,144.633087 
	C93.085938,145.139694 93.902611,145.646286 94.719292,146.152893 
	C94.873360,145.783264 95.027420,145.413651 95.181488,145.044022 
	C94.180679,144.627686 93.179878,144.211349 92.080864,143.215836 
	C91.796280,142.503510 91.511688,141.791199 92.024498,141.058533 
	C93.620422,141.044373 95.216354,141.030212 97.103508,141.657532 
	C97.416840,142.750885 97.730171,143.844223 97.737831,145.546463 
	C97.737885,146.226593 97.737946,146.906723 97.738014,147.586853 
	C98.193436,146.871368 98.648857,146.155869 99.745064,145.386719 
	C106.069771,140.072510 108.926529,139.757401 113.170494,143.066849 
	C116.324944,142.045013 118.818077,141.237396 121.756775,140.285431 
	C122.319366,138.782578 123.161819,136.532150 124.608093,133.847504 
	C127.748672,132.193100 130.889252,130.538712 134.795883,129.040009 
	C137.379135,129.658340 139.962387,130.276688 142.578247,130.902817 
	C143.199280,129.051224 143.964584,126.769478 145.024216,123.690598 
	C143.658096,120.543045 142.339035,117.373070 140.863266,114.277794 
	C140.688889,113.912025 139.655685,113.955727 139.022934,113.072334 
	C138.773285,111.245216 141.903519,108.306602 137.014511,107.723427 
	C137.014511,109.973961 137.014511,112.052956 136.301041,114.369560 
	C135.807922,116.576843 135.314789,118.784134 134.193405,121.106644 
	C133.783432,121.774071 133.373459,122.441498 132.295776,122.948273 
	C131.504181,121.639603 130.712601,120.330925 130.587265,118.931938 
	C132.798431,116.284660 132.747604,116.159142 128.704453,114.426132 
	C127.940857,114.189430 127.177254,113.952736 126.413651,113.716042 
	C126.527954,114.890656 126.642258,116.065277 126.790665,117.502258 
	C126.790665,117.502258 126.892769,117.746330 127.101303,118.568268 
	C125.840111,124.205528 124.691986,124.743530 119.858078,121.499825 
	C119.687263,121.268227 119.467613,121.100632 119.042458,120.171272 
	C119.071442,118.772102 119.100433,117.372940 119.739182,115.965912 
	C120.478012,115.331772 121.216850,114.697639 122.317429,114.536095 
	C122.945824,114.625648 123.574219,114.715210 124.202621,114.804764 
	C124.228424,114.588150 124.254227,114.371536 124.280037,114.154922 
	C123.543121,114.078880 122.806213,114.002831 121.998871,113.292999 
	C119.780815,108.855209 119.269897,113.745758 117.445992,114.028603 
	C117.445992,114.028603 117.013252,113.840240 117.029671,113.256744 
	C116.830536,112.755730 116.631401,112.254707 116.432266,111.753693 
	C115.881516,112.270493 115.330772,112.787292 114.780022,113.304092 
	C115.223648,113.548187 115.667274,113.792290 116.100693,114.538040 
	C116.033875,114.691368 115.967056,114.844688 115.520058,115.154381 
	C115.272682,115.298996 115.099899,115.505905 114.229584,115.921600 
	C113.113091,114.964890 111.996605,114.008179 111.440170,112.630035 
	C110.425186,112.172173 109.410194,111.714310 108.078773,110.649323 
	C107.752335,109.090462 107.425896,107.531593 107.705872,105.945320 
	C108.159607,105.350113 108.613350,104.754906 109.487053,103.653572 
	C110.321594,103.433159 111.156143,103.212746 112.897736,103.032524 
	C115.917610,103.019295 118.937485,103.006073 122.658745,103.027916 
	C123.111214,103.117386 123.563675,103.206848 124.262794,103.650116 
	C124.649849,103.740639 125.036903,103.831161 126.195396,104.090599 
	C126.803459,104.484451 127.411522,104.878311 128.044556,105.914154 
	C128.998749,106.639091 129.952957,107.364029 131.165588,108.549622 
	C131.428040,109.004967 131.690475,109.460320 131.521866,110.280098 
	C131.581070,110.699150 131.640274,111.118210 131.699478,111.537262 
	C132.133484,111.020737 132.567474,110.504211 133.004425,109.106491 
	C132.036819,106.368103 135.621155,101.522018 128.610504,101.291702 
	C122.961838,98.992760 117.228905,96.871391 111.728073,94.260933 
	C110.467812,93.662865 109.632950,91.463669 109.275406,89.852036 
	C108.857811,87.969673 109.177834,85.923668 109.177834,82.892365 
	C102.256348,85.923386 96.439598,88.470627 90.231194,91.189384 
	C91.204475,92.645676 92.521935,94.616928 93.602776,96.234146 
	C92.556152,98.751167 91.679192,100.860161 90.121811,103.119644 
	C89.737869,105.171707 89.353920,107.223770 88.983253,109.946785 
	C89.056694,110.972656 89.130142,111.998535 89.261963,113.839775 
	C90.441780,111.456230 91.227493,109.868881 92.549957,108.006310 
	C93.046600,107.672470 93.543243,107.338623 94.538368,107.198631 
	C95.016754,106.776428 95.495140,106.354225 96.172409,105.405159 
	C96.693710,105.236786 97.215012,105.068413 98.480812,105.108559 
	C99.937653,105.402634 101.394493,105.696701 103.084198,106.679504 
	C102.455002,107.478226 101.825813,108.276955 100.527817,109.097038 
	C100.315842,110.052902 100.103859,111.008766 99.809807,112.764870 
	C99.521950,114.848770 99.234093,116.932663 98.410324,119.425674 
	C99.036263,120.244125 99.662201,121.062584 100.764069,122.451302 
	C101.102707,123.369278 101.678329,124.271545 101.740379,125.207848 
	C102.069153,130.168854 105.032974,132.754730 109.944687,133.003784 
	C109.626625,134.951157 109.308556,136.898514 108.183014,138.979370 
	C107.108513,138.873672 106.034004,138.767975 104.380234,138.193039 
	C102.250252,138.742447 100.120277,139.291855 97.514900,139.985992 
	C97.514900,139.985992 97.023346,140.058929 96.633728,139.629028 
	C94.081238,140.065292 91.528748,140.501556 89.216080,141.560501 
	C90.095650,142.436111 90.975220,143.311722 92.269257,144.633087 
M135.799423,101.530258 
	C136.136749,103.026016 136.474091,104.521767 136.811417,106.017525 
	C137.395416,105.849701 137.979416,105.681885 138.563416,105.514069 
	C139.187286,103.589073 138.786301,101.952728 135.740616,100.342400 
	C134.200775,98.523384 132.660919,96.704361 130.977539,94.199471 
	C129.694687,93.417557 128.411850,92.635651 126.929489,91.145912 
	C123.862007,89.790543 120.794525,88.435173 117.727043,87.079803 
	C117.461922,87.670212 117.196808,88.260620 116.931686,88.851036 
	C119.907616,90.625565 123.421638,91.293610 127.045784,92.772942 
	C128.317978,93.565781 129.590164,94.358620 130.999680,95.829529 
	C132.658752,97.558777 134.317810,99.288017 135.799423,101.530258 
M124.735252,174.078735 
	C125.230209,173.742584 125.725174,173.406418 126.930496,173.008453 
	C127.566147,172.470245 128.201797,171.932053 128.837448,171.393845 
	C128.251572,170.974335 127.590836,170.121307 127.092255,170.207413 
	C124.373482,170.676880 121.694618,171.377487 118.381332,171.983719 
	C118.103134,172.285126 117.824928,172.586548 116.813728,172.956940 
	C116.285110,173.892334 115.756485,174.827713 115.227859,175.763107 
	C116.172096,176.173309 117.323219,177.146240 118.022163,176.889267 
	C120.207565,176.085785 122.222229,174.817902 124.735252,174.078735 
M125.201736,148.527924 
	C116.912445,148.527924 108.623154,148.527924 100.719093,148.527924 
	C102.831062,152.670227 119.246277,153.651978 126.889542,149.174652 
	C128.525192,148.515869 130.160843,147.857086 131.796494,147.198303 
	C131.508759,146.639236 131.221024,146.080154 130.933304,145.521072 
	C129.222382,146.618378 127.511459,147.715668 125.201736,148.527924 
M88.557808,137.638428 
	C90.697220,136.758301 92.836624,135.878159 95.588043,134.951233 
	C96.091545,134.372330 96.595055,133.793411 97.098557,133.214493 
	C96.951622,133.058212 96.804688,132.901917 96.657753,132.745636 
	C96.123756,133.159729 95.589760,133.573837 94.612740,133.262619 
	C91.409492,133.129211 88.206253,132.995804 85.002953,132.188995 
	C84.860970,131.355347 84.718979,130.521698 84.576996,129.688049 
	C84.294899,129.683395 84.012810,129.678726 83.730713,129.674072 
	C83.485672,130.716125 83.240623,131.758194 82.322861,132.816849 
	C79.384735,133.947159 76.446609,135.077454 73.508484,136.207764 
	C73.610016,136.950623 73.711555,137.693481 73.813087,138.436340 
	C77.187134,139.242905 80.561172,140.049469 84.290512,141.380325 
	C85.528610,140.270035 86.766708,139.159729 88.557808,137.638428 
M103.037155,61.584839 
	C102.225533,62.972206 101.413918,64.359573 101.070267,64.947006 
	C99.038193,64.410744 97.179138,63.920139 94.246178,63.146137 
	C95.399712,66.711212 95.723907,70.217804 96.754524,70.439430 
	C100.156311,71.170975 103.813446,70.715126 108.979263,70.715126 
	C106.855247,66.903465 105.290306,64.095085 103.037155,61.584839 
M122.508507,61.130020 
	C117.029106,61.068924 121.105476,66.912407 118.048416,68.348091 
	C118.904732,69.259239 119.798347,70.963791 120.610031,70.925644 
	C122.652252,70.829636 124.657486,69.947029 126.677551,69.379768 
	C124.920212,66.917931 129.115753,61.969753 122.508507,61.130020 
M82.954231,76.014000 
	C83.287590,77.116280 83.620941,78.218559 83.954292,79.320831 
	C82.866936,79.001373 81.701202,78.830246 80.719177,78.311409 
	C80.040688,77.952934 79.724388,76.919373 79.048317,76.543007 
	C78.330803,76.143555 77.379471,76.164116 76.530243,76.001259 
	C76.574089,76.834122 76.329254,77.840385 76.708504,78.471794 
	C79.223099,82.658241 82.289330,83.814934 85.085876,81.796394 
	C88.362587,79.431282 88.160027,77.029610 84.287422,72.769234 
	C83.686859,72.108536 82.986633,71.538422 82.332497,70.926422 
	C81.843361,71.198921 81.354225,71.471420 80.865082,71.743919 
	C81.391373,73.000732 81.917664,74.257545 82.954231,76.014000 
M144.007050,77.403877 
	C144.434204,75.799355 145.409241,74.079109 145.103073,72.629456 
	C144.885406,71.598900 142.460419,69.968552 141.850830,70.272270 
	C139.285202,71.550545 137.031570,73.454994 134.992691,74.897560 
	C138.044708,77.129730 140.657471,79.040634 143.261169,80.944916 
	C143.361038,79.944870 143.459351,78.960373 144.007050,77.403877 
M115.514519,106.261490 
	C114.622795,106.965408 113.731064,107.669327 113.462311,107.881477 
	C113.329987,107.063683 117.688499,109.736755 115.514519,106.261490 
M121.444420,106.837570 
	C121.399948,107.255127 121.355469,107.672691 121.310997,108.090248 
	C121.829491,108.002220 122.347984,107.914192 122.866470,107.826180 
	C122.556496,107.427963 122.246521,107.029755 121.444420,106.837570 
M85.825706,126.926956 
	C85.561996,126.428055 85.298279,125.929146 85.034561,125.430237 
	C84.810226,125.611923 84.377945,125.933784 84.392067,125.954735 
	C84.713631,126.431732 85.083969,126.875854 85.825706,126.926956 
M87.334175,121.578156 
	C87.469307,121.046440 87.613266,120.516243 87.706566,119.977287 
	C87.710213,119.956238 87.229126,119.851280 86.973907,119.785416 
	C86.908211,120.395706 86.842506,121.005989 87.334175,121.578156 
M99.001221,125.680969 
	C98.738449,125.466454 98.475677,125.251930 98.212914,125.037407 
	C98.216820,125.662109 98.220726,126.286819 98.224632,126.911522 
	C98.483559,126.689049 98.742477,126.466568 99.001221,125.680969 
z"/>
<path fill="#1D0E0B" opacity="1.000000" stroke="none" 
	d="
M115.900253,114.998016 
	C115.967056,114.844688 116.033875,114.691368 116.340790,114.281425 
	C116.580887,114.024811 117.013252,113.840240 117.013252,113.840240 
	C117.013252,113.840240 117.445992,114.028603 117.781998,114.327820 
	C118.455147,115.075951 118.792290,115.524864 119.129425,115.973770 
	C119.100433,117.372940 119.071442,118.772102 119.080658,120.849136 
	C119.424339,121.644447 119.729828,121.761894 120.035309,121.879341 
	C124.691986,124.743530 125.840111,124.205528 127.257645,118.090286 
	C127.592934,117.624222 127.771889,117.636139 128.150238,117.880516 
	C128.553818,118.115616 128.757980,118.118256 129.034668,118.346344 
	C129.320618,118.826431 129.591904,118.976585 129.921005,119.022255 
	C130.712601,120.330925 131.504181,121.639603 132.654938,123.263229 
	C133.014099,123.578178 133.095413,124.043098 133.074905,124.406906 
	C133.379532,126.141914 133.704681,127.513115 134.029831,128.884308 
	C130.889252,130.538712 127.748672,132.193100 123.892433,133.969635 
	C119.075142,133.456833 114.973503,132.821899 110.644241,132.126572 
	C110.416603,132.066177 109.981422,132.246399 109.981422,132.246399 
	C105.032974,132.754730 102.069153,130.168854 101.740379,125.207848 
	C101.678329,124.271545 101.102707,123.369278 100.505722,121.824715 
	C99.813660,120.470940 99.379951,119.743752 98.946243,119.016563 
	C99.234093,116.932663 99.521950,114.848770 100.164154,112.232803 
	C100.744545,110.825714 100.970573,109.950691 101.196609,109.075684 
	C101.825813,108.276955 102.455002,107.478226 103.123459,106.065201 
	C104.104057,105.583611 105.045380,105.716324 106.260361,105.920776 
	C106.722496,105.985916 106.910973,105.979324 107.099457,105.972733 
	C107.425896,107.531593 107.752335,109.090462 108.353134,111.302124 
	C109.378365,112.320442 110.129242,112.685951 110.880119,113.051460 
	C111.996605,114.008179 113.113091,114.964890 114.889267,115.924240 
	C115.666054,115.617264 115.783150,115.307640 115.900253,114.998016 
z"/>
<path fill="#F21313" opacity="1.000000" stroke="none" 
	d="
M105.986710,105.849030 
	C105.045380,105.716324 104.104057,105.583611 103.007034,105.720833 
	C101.394493,105.696701 99.937653,105.402634 97.904358,104.747665 
	C95.615425,104.621643 93.902962,104.856514 91.984825,104.843819 
	C91.453514,104.053894 91.127876,103.511528 90.802231,102.969162 
	C91.679192,100.860161 92.556152,98.751167 93.602776,96.234146 
	C92.521935,94.616928 91.204475,92.645676 90.231194,91.189384 
	C96.439598,88.470627 102.256348,85.923386 109.177834,82.892365 
	C109.177834,85.923668 108.857811,87.969673 109.275406,89.852036 
	C109.632950,91.463669 110.467812,93.662865 111.728073,94.260933 
	C117.228905,96.871391 122.961838,98.992760 129.202942,101.601433 
	C129.942383,102.962723 130.089386,104.014282 129.867371,105.112999 
	C129.005432,105.197495 128.512497,105.234833 128.019577,105.272171 
	C127.411522,104.878311 126.803459,104.484451 125.707748,103.830849 
	C124.818779,103.479507 124.417465,103.387909 124.016144,103.296310 
	C123.563675,103.206848 123.111214,103.117386 122.049408,102.701530 
	C118.290283,102.580879 115.140480,102.786606 111.990685,102.992332 
	C111.156143,103.212746 110.321594,103.433159 108.958862,103.922501 
	C107.616013,104.743958 106.801361,105.296494 105.986710,105.849030 
z"/>
<path fill="#068A2D" opacity="1.000000" stroke="none" 
	d="
M110.871872,132.186966 
	C114.973503,132.821899 119.075142,133.456833 123.590515,134.186737 
	C123.161819,136.532150 122.319366,138.782578 121.756775,140.285431 
	C118.818077,141.237396 116.324944,142.045013 113.170494,143.066849 
	C108.926529,139.757401 106.069771,140.072510 99.278648,145.276245 
	C98.561172,145.072281 98.304932,144.996216 98.043510,144.937576 
	C97.730171,143.844223 97.416840,142.750885 97.027237,141.101166 
	C96.950966,140.544800 97.023346,140.058929 97.023346,140.058929 
	C97.023346,140.058929 97.514900,139.985992 98.150299,139.971298 
	C100.843628,139.525162 102.901566,139.093704 104.959503,138.662262 
	C106.034004,138.767975 107.108513,138.873672 108.989395,138.955902 
	C110.154480,136.683945 110.513176,134.435455 110.871872,132.186966 
z"/>
<path fill="#312522" opacity="1.000000" stroke="none" 
	d="
M85.003006,132.862396 
	C88.206253,132.995804 91.409492,133.129211 94.677963,133.867035 
	C94.820801,134.646973 94.898422,134.822510 94.976036,134.998032 
	C92.836624,135.878159 90.697220,136.758301 87.946068,137.836639 
	C86.201286,138.975235 85.068245,139.915634 83.935211,140.856049 
	C80.561172,140.049469 77.187134,139.242905 73.813087,138.436340 
	C73.711555,137.693481 73.610016,136.950623 73.508484,136.207764 
	C76.446609,135.077454 79.384735,133.947159 82.990265,132.881805 
	C84.106117,132.918640 84.554558,132.890518 85.003006,132.862396 
z"/>
<path fill="#1E5F9A" opacity="1.000000" stroke="none" 
	d="
M103.381264,61.435772 
	C105.290306,64.095085 106.855247,66.903465 108.979263,70.715126 
	C103.813446,70.715126 100.156311,71.170975 96.754524,70.439430 
	C95.723907,70.217804 95.399712,66.711212 94.246178,63.146137 
	C97.179138,63.920139 99.038193,64.410744 101.070267,64.947006 
	C101.413918,64.359573 102.225533,62.972206 103.381264,61.435772 
z"/>
<path fill="#FCE70E" opacity="1.000000" stroke="none" 
	d="
M134.821686,120.991425 
	C135.314789,118.784134 135.807922,116.576843 137.000885,114.287155 
	C138.140671,114.073044 138.580643,113.941330 139.020599,113.809616 
	C139.655685,113.955727 140.688889,113.912025 140.863266,114.277794 
	C142.339035,117.373070 143.658096,120.543045 144.432983,124.040146 
	C140.456833,124.267311 137.071915,124.144928 133.862137,123.723976 
	C134.298752,122.614082 134.560226,121.802750 134.821686,120.991425 
z"/>
<path fill="#1B5D98" opacity="1.000000" stroke="none" 
	d="
M122.888229,61.173195 
	C129.115753,61.969753 124.920212,66.917931 126.677551,69.379768 
	C124.657486,69.947029 122.652252,70.829636 120.610031,70.925644 
	C119.798347,70.963791 118.904732,69.259239 118.048416,68.348091 
	C121.105476,66.912407 117.029106,61.068924 122.888229,61.173195 
z"/>
<path fill="#195B97" opacity="1.000000" stroke="none" 
	d="
M82.699097,75.764183 
	C81.917664,74.257545 81.391373,73.000732 80.865082,71.743919 
	C81.354225,71.471420 81.843361,71.198921 82.332497,70.926422 
	C82.986633,71.538422 83.686859,72.108536 84.287422,72.769234 
	C88.160027,77.029610 88.362587,79.431282 85.085876,81.796394 
	C82.289330,83.814934 79.223099,82.658241 76.708504,78.471794 
	C76.329254,77.840385 76.574089,76.834122 76.530243,76.001259 
	C77.379471,76.164116 78.330803,76.143555 79.048317,76.543007 
	C79.724388,76.919373 80.040688,77.952934 80.719177,78.311409 
	C81.701202,78.830246 82.866936,79.001373 83.954292,79.320831 
	C83.620941,78.218559 83.287590,77.116280 82.699097,75.764183 
z"/>
<path fill="#155A96" opacity="1.000000" stroke="none" 
	d="
M143.782349,77.689873 
	C143.459351,78.960373 143.361038,79.944870 143.261169,80.944916 
	C140.657471,79.040634 138.044708,77.129730 134.992691,74.897560 
	C137.031570,73.454994 139.285202,71.550545 141.850830,70.272270 
	C142.460419,69.968552 144.885406,71.598900 145.103073,72.629456 
	C145.409241,74.079109 144.434204,75.799355 143.782349,77.689873 
z"/>
<path fill="#F1E2DF" opacity="1.000000" stroke="none" 
	d="
M126.222282,149.304214 
	C119.246277,153.651978 102.831062,152.670227 100.719093,148.527924 
	C108.623154,148.527924 116.912445,148.527924 125.613190,148.787567 
	C126.024651,149.047226 126.222282,149.304214 126.222282,149.304214 
z"/>
<path fill="#299531" opacity="1.000000" stroke="none" 
	d="
M133.686981,124.022545 
	C137.071915,124.144928 140.456833,124.267311 144.285828,124.438713 
	C143.964584,126.769478 143.199280,129.051224 142.578247,130.902817 
	C139.962387,130.276688 137.379135,129.658340 134.412857,128.962158 
	C133.704681,127.513115 133.379532,126.141914 133.221924,124.380905 
	C133.389450,123.991081 133.686981,124.022545 133.686981,124.022545 
z"/>
<path fill="#C6D5E4" opacity="1.000000" stroke="none" 
	d="
M119.002029,171.998596 
	C121.694618,171.377487 124.373482,170.676880 127.092255,170.207413 
	C127.590836,170.121307 128.251572,170.974335 128.837448,171.393845 
	C128.201797,171.932053 127.566147,172.470245 126.411308,172.778015 
	C125.362434,172.941727 124.832748,173.335861 124.303070,173.729996 
	C122.222229,174.817902 120.207565,176.085785 118.022163,176.889267 
	C117.323219,177.146240 116.172096,176.173309 115.227859,175.763107 
	C115.756485,174.827713 116.285110,173.892334 117.310661,173.239197 
	C118.205734,173.013840 118.603882,172.506210 119.002029,171.998596 
z"/>
<path fill="#FEF3F0" opacity="1.000000" stroke="none" 
	d="
M126.847687,92.142555 
	C123.421638,91.293610 119.907616,90.625565 116.931686,88.851036 
	C117.196808,88.260620 117.461922,87.670212 117.727043,87.079803 
	C120.794525,88.435173 123.862007,89.790543 126.960312,91.574455 
	C126.991142,92.002998 126.847687,92.142555 126.847687,92.142555 
z"/>
<path fill="#FEF3F0" opacity="1.000000" stroke="none" 
	d="
M130.236374,105.065842 
	C130.089386,104.014282 129.942383,102.962723 129.577515,101.573021 
	C135.621155,101.522018 132.036819,106.368103 132.740311,109.536484 
	C132.301758,109.949532 132.127335,109.932594 131.952927,109.915665 
	C131.690475,109.460320 131.428040,109.004967 131.073624,107.990540 
	C130.733231,106.642921 130.484802,105.854385 130.236374,105.065842 
z"/>
<path fill="#FEDEDB" opacity="1.000000" stroke="none" 
	d="
M90.462021,103.044403 
	C91.127876,103.511528 91.453514,104.053894 91.814682,105.116753 
	C91.569855,106.422195 91.289513,107.207153 90.843887,108.258362 
	C90.109070,108.775024 89.539520,109.025429 88.969971,109.275833 
	C89.353920,107.223770 89.737869,105.171707 90.462021,103.044403 
z"/>
<path fill="#FEF3F0" opacity="1.000000" stroke="none" 
	d="
M139.021759,113.440979 
	C138.580643,113.941330 138.140671,114.073044 137.357605,114.168350 
	C137.014511,112.052956 137.014511,109.973961 137.014511,107.723427 
	C141.903519,108.306602 138.773285,111.245216 139.021759,113.440979 
z"/>
<path fill="#2F6CA2" opacity="1.000000" stroke="none" 
	d="
M151.935349,148.118835 
	C150.487946,148.067886 149.040543,148.016937 147.593140,147.965973 
	C148.174927,147.314713 148.756714,146.663467 149.663879,146.425720 
	C150.637939,147.265747 151.286652,147.692291 151.935349,148.118835 
z"/>
<path fill="#FEF3F0" opacity="1.000000" stroke="none" 
	d="
M135.976883,101.017265 
	C134.317810,99.288017 132.658752,97.558777 130.994308,95.422615 
	C130.988937,95.015701 131.121078,94.885345 131.121078,94.885345 
	C132.660919,96.704361 134.200775,98.523384 135.869507,100.671753 
	C135.998398,101.001114 135.976883,101.017265 135.976883,101.017265 
z"/>
<path fill="#F8D30E" opacity="1.000000" stroke="none" 
	d="
M91.009171,107.992104 
	C91.289513,107.207153 91.569855,106.422195 92.020340,105.364311 
	C93.902962,104.856514 95.615425,104.621643 97.532104,104.643410 
	C97.215012,105.068413 96.693710,105.236786 95.778320,105.736534 
	C94.936119,106.380196 94.487999,106.692490 94.039886,107.004776 
	C93.543243,107.338623 93.046600,107.672470 92.025650,108.088600 
	C91.337288,108.111298 91.173233,108.051697 91.009171,107.992104 
z"/>
<path fill="#FEF3F0" opacity="1.000000" stroke="none" 
	d="
M136.008118,100.992157 
	C138.786301,101.952728 139.187286,103.589073 138.563416,105.514069 
	C137.979416,105.681885 137.395416,105.849701 136.811417,106.017525 
	C136.474091,104.521767 136.136749,103.026016 135.888153,101.273758 
	C135.976883,101.017265 135.998398,101.001114 136.008118,100.992157 
z"/>
<path fill="#ECECEC" opacity="1.000000" stroke="none" 
	d="
M119.434303,115.969841 
	C118.792290,115.524864 118.455147,115.075951 118.017914,114.333450 
	C119.269897,113.745758 119.780815,108.855209 122.004425,113.643028 
	C122.009979,113.993057 121.955688,114.063507 121.955688,114.063507 
	C121.216850,114.697639 120.478012,115.331772 119.434303,115.969841 
z"/>
<path fill="#F1E2DF" opacity="1.000000" stroke="none" 
	d="
M125.912598,148.930099 
	C127.511459,147.715668 129.222382,146.618378 130.933304,145.521072 
	C131.221024,146.080154 131.508759,146.639236 131.796494,147.198303 
	C130.160843,147.857086 128.525192,148.515869 126.555908,149.239441 
	C126.222282,149.304214 126.024651,149.047226 125.912598,148.930099 
z"/>
<path fill="#F2F2F2" opacity="1.000000" stroke="none" 
	d="
M128.962158,118.120903 
	C128.757980,118.118256 128.553818,118.115616 127.998787,117.708679 
	C127.361710,117.133087 127.064583,117.111595 126.756554,117.239891 
	C126.642258,116.065277 126.527954,114.890656 126.413651,113.716034 
	C127.177254,113.952736 127.940857,114.189430 128.851685,115.107117 
	C128.986679,116.565697 128.974426,117.343300 128.962158,118.120903 
z"/>
<path fill="#EFEFEF" opacity="1.000000" stroke="none" 
	d="
M84.112854,141.118195 
	C85.068245,139.915634 86.201286,138.975235 87.669571,138.042145 
	C86.766708,139.159729 85.528610,140.270035 84.112854,141.118195 
z"/>
<path fill="#EDEEED" opacity="1.000000" stroke="none" 
	d="
M129.034668,118.346344 
	C128.974426,117.343300 128.986679,116.565697 128.999161,115.399544 
	C132.747604,116.159142 132.798431,116.284660 130.254135,118.977097 
	C129.591904,118.976585 129.320618,118.826431 129.034668,118.346344 
z"/>
<path fill="#EFEFEF" opacity="1.000000" stroke="none" 
	d="
M96.828537,139.843979 
	C97.023346,140.058929 96.950966,140.544800 96.881622,140.780426 
	C95.216354,141.030212 93.620422,141.044373 91.249443,141.028046 
	C89.975006,140.977631 89.475632,140.957718 88.976250,140.937805 
	C91.528748,140.501556 94.081238,140.065292 96.828537,139.843979 
z"/>
<path fill="#F2F2F2" opacity="1.000000" stroke="none" 
	d="
M112.444214,103.012428 
	C115.140480,102.786606 118.290283,102.580879 121.698715,102.683998 
	C118.937485,103.006073 115.917610,103.019295 112.444214,103.012428 
z"/>
<path fill="#FAFAF9" opacity="1.000000" stroke="none" 
	d="
M90.843887,108.258362 
	C91.173233,108.051697 91.337288,108.111298 91.757271,108.226212 
	C91.227493,109.868881 90.441780,111.456230 89.261963,113.839775 
	C89.130142,111.998535 89.056694,110.972656 88.976608,109.611313 
	C89.539520,109.025429 90.109070,108.775024 90.843887,108.258362 
z"/>
<path fill="#FEF3F0" opacity="1.000000" stroke="none" 
	d="
M130.925644,95.083580 
	C129.590164,94.358620 128.317978,93.565781 126.946732,92.457748 
	C126.847687,92.142555 126.991142,92.002998 127.060074,91.928375 
	C128.411850,92.635651 129.694687,93.417557 131.049316,94.542404 
	C131.121078,94.885345 130.988937,95.015701 130.925644,95.083580 
z"/>
<path fill="#EFEFEF" opacity="1.000000" stroke="none" 
	d="
M110.644241,132.126572 
	C110.513176,134.435455 110.154480,136.683945 109.393143,138.889160 
	C109.308556,136.898514 109.626625,134.951157 109.963058,132.625092 
	C109.981422,132.246399 110.416603,132.066177 110.644241,132.126572 
z"/>
<path fill="#EDEEED" opacity="1.000000" stroke="none" 
	d="
M115.830048,106.236938 
	C117.688499,109.736755 113.329987,107.063683 113.462311,107.881477 
	C113.731064,107.669327 114.622795,106.965408 115.830048,106.236938 
z"/>
<path fill="#EFEFEF" opacity="1.000000" stroke="none" 
	d="
M104.669868,138.427643 
	C102.901566,139.093704 100.843628,139.525162 98.387993,139.898926 
	C100.120277,139.291855 102.250252,138.742447 104.669868,138.427643 
z"/>
<path fill="#F2F2F2" opacity="1.000000" stroke="none" 
	d="
M129.867371,105.112999 
	C130.484802,105.854385 130.733231,106.642921 130.944397,107.760216 
	C129.952957,107.364029 128.998749,106.639091 128.032074,105.593163 
	C128.512497,105.234833 129.005432,105.197495 129.867371,105.112999 
z"/>
<path fill="#FAFAF9" opacity="1.000000" stroke="none" 
	d="
M85.002975,132.525696 
	C84.554558,132.890518 84.106117,132.918640 83.326630,132.873505 
	C83.240623,131.758194 83.485672,130.716125 83.730713,129.674072 
	C84.012810,129.678726 84.294899,129.683395 84.576996,129.688049 
	C84.718979,130.521698 84.860970,131.355347 85.002975,132.525696 
z"/>
<path fill="#F1E2DF" opacity="1.000000" stroke="none" 
	d="
M89.096161,141.249146 
	C89.475632,140.957718 89.975006,140.977631 90.850746,141.038208 
	C91.511688,141.791199 91.796280,142.503510 92.048149,143.602890 
	C92.015434,143.989944 91.854782,144.187332 91.854782,144.187332 
	C90.975220,143.311722 90.095650,142.436111 89.096161,141.249146 
z"/>
<path fill="#EFEFEF" opacity="1.000000" stroke="none" 
	d="
M98.678284,119.221115 
	C99.379951,119.743752 99.813660,120.470940 100.267754,121.539581 
	C99.662201,121.062584 99.036263,120.244125 98.678284,119.221115 
z"/>
<path fill="#EDEEED" opacity="1.000000" stroke="none" 
	d="
M111.160141,112.840744 
	C110.129242,112.685951 109.378365,112.320442 108.511345,111.605698 
	C109.410194,111.714310 110.425186,112.172173 111.160141,112.840744 
z"/>
<path fill="#FAFAF9" opacity="1.000000" stroke="none" 
	d="
M100.862213,109.086357 
	C100.970573,109.950691 100.744545,110.825714 100.205200,111.832680 
	C100.103859,111.008766 100.315842,110.052902 100.862213,109.086357 
z"/>
<path fill="#F1E2DF" opacity="1.000000" stroke="none" 
	d="
M92.097260,143.892487 
	C93.179878,144.211349 94.180679,144.627686 95.181488,145.044022 
	C95.027420,145.413651 94.873360,145.783264 94.719292,146.152893 
	C93.902611,145.646286 93.085938,145.139694 92.062019,144.410217 
	C91.854782,144.187332 92.015434,143.989944 92.097260,143.892487 
z"/>
<path fill="#F1E2DF" opacity="1.000000" stroke="none" 
	d="
M97.890671,145.242020 
	C98.304932,144.996216 98.561172,145.072281 98.958252,145.303070 
	C98.648857,146.155869 98.193436,146.871368 97.738007,147.586853 
	C97.737946,146.906723 97.737885,146.226593 97.890671,145.242020 
z"/>
<path fill="#D7E2ED" opacity="1.000000" stroke="none" 
	d="
M151.960968,147.827820 
	C151.286652,147.692291 150.637939,147.265747 149.968079,146.527802 
	C149.945160,146.019196 149.943405,145.821991 150.243958,145.404160 
	C151.018677,145.512909 151.491089,145.842316 151.977997,146.366852 
	C151.992508,146.561981 152.009766,146.952957 152.009766,146.952957 
	C152.002045,147.147568 151.994324,147.342178 151.960968,147.827820 
z"/>
<path fill="#5180AD" opacity="1.000000" stroke="none" 
	d="
M124.519165,173.904358 
	C124.832748,173.335861 125.362434,172.941727 126.056122,172.808929 
	C125.725174,173.406418 125.230209,173.742584 124.519165,173.904358 
z"/>
<path fill="#F2F2F2" opacity="1.000000" stroke="none" 
	d="
M106.260361,105.920769 
	C106.801361,105.296494 107.616013,104.743958 108.748878,104.175568 
	C108.613350,104.754906 108.159607,105.350113 107.402664,105.959030 
	C106.910973,105.979324 106.722496,105.985916 106.260361,105.920769 
z"/>
<path fill="#EDEEED" opacity="1.000000" stroke="none" 
	d="
M121.690483,106.734558 
	C122.246521,107.029755 122.556496,107.427963 122.866470,107.826172 
	C122.347984,107.914192 121.829491,108.002220 121.310997,108.090248 
	C121.355469,107.672691 121.399948,107.255127 121.690483,106.734558 
z"/>
<path fill="#F2F2F2" opacity="1.000000" stroke="none" 
	d="
M133.862137,123.723976 
	C133.686981,124.022545 133.389450,123.991081 133.242432,124.017090 
	C133.095413,124.043098 133.014099,123.578178 132.988800,123.343552 
	C133.373459,122.441498 133.783432,121.774071 134.507538,121.049034 
	C134.560226,121.802750 134.298752,122.614082 133.862137,123.723976 
z"/>
<path fill="#FAFAF9" opacity="1.000000" stroke="none" 
	d="
M85.635445,127.126541 
	C85.083969,126.875854 84.713631,126.431732 84.392067,125.954735 
	C84.377945,125.933784 84.810226,125.611923 85.034561,125.430237 
	C85.298279,125.929146 85.561996,126.428055 85.635445,127.126541 
z"/>
<path fill="#FAFAF9" opacity="1.000000" stroke="none" 
	d="
M87.055489,121.597214 
	C86.842506,121.005989 86.908211,120.395706 86.973907,119.785416 
	C87.229126,119.851280 87.710213,119.956238 87.706566,119.977287 
	C87.613266,120.516243 87.469307,121.046440 87.055489,121.597214 
z"/>
<path fill="#EDEEED" opacity="1.000000" stroke="none" 
	d="
M117.021461,113.548492 
	C117.013252,113.840240 116.580887,114.024811 116.345894,114.030602 
	C115.667274,113.792290 115.223648,113.548187 114.780022,113.304092 
	C115.330772,112.787292 115.881516,112.270493 116.432266,111.753693 
	C116.631401,112.254707 116.830536,112.755730 117.021461,113.548492 
z"/>
<path fill="#EFEFEF" opacity="1.000000" stroke="none" 
	d="
M95.282043,134.974640 
	C94.898422,134.822510 94.820801,134.646973 94.899475,134.229691 
	C95.589760,133.573837 96.123756,133.159729 96.657753,132.745636 
	C96.804688,132.901917 96.951622,133.058212 97.098557,133.214493 
	C96.595055,133.793411 96.091545,134.372330 95.282043,134.974640 
z"/>
<path fill="#4578A9" opacity="1.000000" stroke="none" 
	d="
M152.343765,147.014099 
	C152.009766,146.952957 151.992508,146.561981 152.024872,146.029510 
	C152.074783,145.270782 152.092316,145.044556 152.109833,144.818314 
	C152.497116,144.827301 152.884384,144.836273 153.735016,145.016525 
	C154.198349,145.187790 154.572083,145.499786 154.572083,145.499786 
	C153.940643,146.024933 153.309204,146.550079 152.343765,147.014099 
z"/>
<path fill="#F2F2F2" opacity="1.000000" stroke="none" 
	d="
M131.737396,110.097885 
	C132.127335,109.932594 132.301758,109.949532 132.738831,109.977081 
	C132.567474,110.504211 132.133484,111.020737 131.699478,111.537262 
	C131.640274,111.118210 131.581070,110.699150 131.737396,110.097885 
z"/>
<path fill="#EFEFEF" opacity="1.000000" stroke="none" 
	d="
M99.001312,125.962524 
	C98.742477,126.466568 98.483559,126.689049 98.224632,126.911522 
	C98.220726,126.286819 98.216820,125.662109 98.212914,125.037407 
	C98.475677,125.251930 98.738449,125.466454 99.001312,125.962524 
z"/>
<path fill="#105B98" opacity="1.000000" stroke="none" 
	d="
M151.940918,144.544708 
	C152.092316,145.044556 152.074783,145.270782 152.010376,145.834366 
	C151.491089,145.842316 151.018677,145.512909 150.264648,145.109070 
	C150.579361,144.780121 151.175690,144.525604 151.940918,144.544708 
z"/>
<path fill="#ECECEC" opacity="1.000000" stroke="none" 
	d="
M122.039642,113.959923 
	C122.806213,114.002831 123.543121,114.078880 124.280037,114.154922 
	C124.254227,114.371536 124.228424,114.588150 124.202621,114.804764 
	C123.574219,114.715210 122.945824,114.625648 122.136559,114.299805 
	C121.955688,114.063507 122.009979,113.993057 122.039642,113.959923 
z"/>
<path fill="#FAFAF9" opacity="1.000000" stroke="none" 
	d="
M94.289124,107.101700 
	C94.487999,106.692490 94.936119,106.380196 95.678879,105.999969 
	C95.495140,106.354225 95.016754,106.776428 94.289124,107.101700 
z"/>
<path fill="#F2F2F2" opacity="1.000000" stroke="none" 
	d="
M124.139465,103.473213 
	C124.417465,103.387909 124.818779,103.479507 125.322021,103.746391 
	C125.036903,103.831161 124.649849,103.740639 124.139465,103.473213 
z"/>
<path fill="#3C77A9" opacity="1.000000" stroke="none" 
	d="
M85.630257,91.305824 
	C85.970993,91.792480 86.311737,92.279144 86.652473,92.765800 
	C86.077538,92.824753 85.502609,92.883713 85.032692,92.398041 
	C85.301895,91.670883 85.466080,91.488358 85.630257,91.305824 
z"/>
<path fill="#81A0C2" opacity="1.000000" stroke="none" 
	d="
M118.691681,171.991150 
	C118.603882,172.506210 118.205734,173.013840 117.677155,173.204712 
	C117.824928,172.586548 118.103134,172.285126 118.691681,171.991150 
z"/>
<path fill="#3C77A9" opacity="1.000000" stroke="none" 
	d="
M84.875732,92.112228 
	C84.343941,91.894524 84.074120,91.418007 83.804298,90.941490 
	C84.292023,90.900322 84.779755,90.859146 85.448868,91.061897 
	C85.466080,91.488358 85.301895,91.670883 84.875732,92.112228 
z"/>
<path fill="#4578A9" opacity="1.000000" stroke="none" 
	d="
M154.025772,145.016113 
	C154.171768,144.665314 154.490326,144.486206 154.808899,144.307083 
	C154.847778,144.560928 154.886673,144.814758 154.748825,145.284195 
	C154.572083,145.499786 154.198349,145.187790 154.025772,145.016113 
z"/>
<path fill="#EDEEED" opacity="1.000000" stroke="none" 
	d="
M115.710159,115.076202 
	C115.783150,115.307640 115.666054,115.617264 115.275330,115.850998 
	C115.099899,115.505905 115.272682,115.298996 115.710159,115.076202 
z"/>
<path fill="#ECECEC" opacity="1.000000" stroke="none" 
	d="
M126.773605,117.371078 
	C127.064583,117.111595 127.361710,117.133087 127.799377,117.476212 
	C127.771889,117.636139 127.592934,117.624222 127.153381,117.679314 
	C126.892769,117.746330 126.790665,117.502258 126.773605,117.371078 
z"/>
<path fill="#ECECEC" opacity="1.000000" stroke="none" 
	d="
M119.946693,121.689583 
	C119.729828,121.761894 119.424339,121.644447 119.158997,121.262024 
	C119.467613,121.100632 119.687263,121.268227 119.946693,121.689583 
z"/>
</svg>